<?xml version="1.0" encoding="UTF-8"?>
<svg id="Capa_1" xmlns="http://www.w3.org/2000/svg" version="1.1" viewBox="0 0 337.7 98">
  <!-- Generator: Adobe Illustrator 29.8.2, SVG Export Plug-In . SVG Version: 2.1.1 Build 3)  -->
  <defs>
    <style>
      .st0 {
        fill: #c38c56;
      }

      .st1 {
        fill: #c8cac8;
      }

      .st2 {
        fill: #a6aaa7;
      }

      .st3 {
        fill: #b08f72;
      }

      .st4 {
        fill: #746b68;
      }

      .st5 {
        fill: #28554e;
      }
    </style>
  </defs>
  <circle class="st0" cx="47.1" cy="49.1" r="12.3"/>
  <path class="st1" d="M23,48.5c0-13.1,10.8-23.6,24.2-23.6s15.2,3.8,19.5,9.8l11.3-11.3c-7.6-8.2-18.8-13.4-31.3-13.4C23.6,10,5,27.5,5,49.1s4.6,20.3,11.9,27.4l12.5-11.8c-4-4.2-6.4-9.9-6.4-16.1Z"/>
  <path class="st5" d="M78.3,74.4l-12-11.5c-4.4,5.6-11.4,9.3-19.2,9.3s-13.3-2.9-17.7-7.6l-12.5,11.8c7.6,7.2,18.1,11.7,29.7,11.7s24-5.3,31.7-13.7Z"/>
  <g>
    <path class="st4" d="M88.5,33.5c0-9.3,7.1-16.5,16.8-16.5s11,2.9,13.8,7.4l-6.4,3.6c-1.4-2.5-4.2-3.9-7.5-3.9-5.7,0-9.4,3.8-9.4,9.4s3.7,9.4,9.4,9.4,6.1-1.5,7.5-3.9l6.4,3.6c-2.8,4.5-7.9,7.4-13.8,7.4-9.7,0-16.8-7.2-16.8-16.5Z"/>
    <path class="st4" d="M120.2,33.5c0-9.3,7.6-16.5,16.9-16.5s16.9,7.2,16.9,16.5-7.6,16.5-16.9,16.5-16.9-7.2-16.9-16.5ZM146.6,33.5c0-5.7-4.2-9.4-9.5-9.4s-9.5,3.8-9.5,9.4,4.2,9.4,9.5,9.4,9.5-3.8,9.5-9.4Z"/>
    <path class="st4" d="M167.2,24.6v6.1h14.3v7h-14.3v11.7h-8.8v-31.8h23.4v7h-14.6Z"/>
    <path class="st4" d="M210.1,42.4v7h-24.2v-31.8h24v7h-15.2v5.3h13.8v6.9h-13.8v5.6h15.4Z"/>
    <path class="st4" d="M242.4,28.5c0,6-5.5,10.9-12.6,10.9h-5.4v10h-8.2v-31.8h13.6c7.1,0,12.6,4.9,12.6,10.9ZM234.2,28.5c0-2.3-1.8-4.1-4.4-4.1h-5.4v8.2h5.4c2.5,0,4.4-1.8,4.4-4.1Z"/>
    <path class="st4" d="M259.5,39h-4v10.4h-8.3v-31.8h14.6c6.9,0,12.5,4.9,12.5,10.9s-2.7,7.4-6.7,9.2l7.8,11.7h-9l-6.9-10.4ZM255.5,32.6h6.3c2.3,0,4.2-1.8,4.2-4.1s-1.9-4.1-4.2-4.1h-6.3v8.2Z"/>
    <path class="st4" d="M286.5,17.7v31.8h-7.3v-31.8h7.3Z"/>
    <path class="st4" d="M298,49.6c-1.6-.3-3.1-.8-4.6-1.4-1.4-.6-2.7-1.4-3.8-2.2l3.1-5.2c1.4,1.1,2.9,1.9,4.7,2.4,1.8.6,3.6.9,5.5.9s3.9-.3,5.1-1c1.2-.7,1.8-1.7,1.8-3h0c0-.9-.3-1.6-.8-2.1-.5-.5-1.2-.9-2.1-1.2s-2-.5-3.3-.7c0,0,0,0-.1,0s0,0-.1,0h-.5c-2.4-.4-4.3-.9-5.9-1.4s-2.9-1.5-4-2.8c-1.1-1.3-1.6-3.2-1.6-5.6h0c0-2.2.5-4,1.5-5.6,1-1.5,2.5-2.7,4.5-3.5,2-.8,4.3-1.2,7.1-1.2s2.6.1,3.9.4,2.6.7,3.9,1.2,2.5,1.2,3.6,1.9l-2.8,5.3c-1.4-.9-2.8-1.6-4.3-2.1-1.5-.5-2.9-.7-4.3-.7-2,0-3.6.3-4.8,1-1.1.6-1.7,1.5-1.7,2.7h0c0,1,.3,1.8.9,2.3.6.6,1.3,1,2.2,1.2.9.3,2.1.5,3.6.8,0,0,.1,0,.2,0,0,0,.1,0,.2,0,0,0,.2,0,.3,0,0,0,.2,0,.3,0,2.2.4,4.1.9,5.6,1.5,1.5.6,2.8,1.5,3.8,2.9,1,1.3,1.5,3.1,1.5,5.4h0c0,2.2-.5,4-1.6,5.5-1.1,1.5-2.6,2.7-4.6,3.5-2,.8-4.5,1.2-7.3,1.2s-3.3-.2-5-.5Z"/>
  </g>
  <g>
    <path class="st2" d="M89.6,66.3c0-2.2,1.6-3.9,3.9-3.9s2.6.7,3.2,1.7l-1.5.9c-.3-.6-1-.9-1.7-.9-1.3,0-2.2.9-2.2,2.2s.9,2.2,2.2,2.2,1.4-.3,1.7-.9l1.5.9c-.6,1.1-1.8,1.7-3.2,1.7-2.3,0-3.9-1.7-3.9-3.9Z"/>
    <path class="st2" d="M97.7,66.3c0-2.2,1.7-3.9,3.9-3.9s3.9,1.7,3.9,3.9-1.7,3.9-3.9,3.9-3.9-1.7-3.9-3.9ZM103.7,66.3c0-1.3-1-2.2-2.2-2.2s-2.2.9-2.2,2.2,1,2.2,2.2,2.2,2.2-.9,2.2-2.2Z"/>
    <path class="st2" d="M114.6,70.1h-1.7v-4.3l-1.9,3.2h-.2l-1.9-3.2v4.3h-1.7v-7.5h1.7l2,3.3,2-3.3h1.7v7.5Z"/>
    <path class="st2" d="M118.2,62.6v7.5h-1.7v-7.5h1.7Z"/>
    <path class="st2" d="M119.7,68.4l1.5-.9c.3.6.7,1,1.6,1s1-.3,1-.6c0-.5-.4-.6-1.5-1-1.1-.3-2.2-.8-2.2-2.3s1.2-2.3,2.5-2.3,2.2.6,2.7,1.7l-1.4.8c-.3-.5-.6-.9-1.3-.9s-.8.3-.8.6.2.6,1.3.9c1.1.3,2.4.7,2.4,2.3s-1.2,2.3-2.8,2.3-2.6-.7-3-1.8Z"/>
    <path class="st2" d="M128.6,62.6v7.5h-1.7v-7.5h1.7Z"/>
    <path class="st2" d="M130.2,66.3c0-2.2,1.7-3.9,3.9-3.9s3.9,1.7,3.9,3.9-1.7,3.9-3.9,3.9-3.9-1.7-3.9-3.9ZM136.3,66.3c0-1.3-1-2.2-2.2-2.2s-2.2.9-2.2,2.2,1,2.2,2.2,2.2,2.2-.9,2.2-2.2ZM134.7,61.9l1.2-1.5h-1.9l-.9,1.5h1.5Z"/>
    <path class="st2" d="M145.5,62.6v7.5h-1.3l-2.9-4.1v4.1h-1.7v-7.5h1.3l2.9,4.1v-4.1h1.7Z"/>
    <path class="st2" d="M152.8,64.2v1.4h2.8v1.6h-2.8v2.7h-1.7v-7.5h4.5v1.6h-2.8Z"/>
    <path class="st2" d="M162.7,68.4v1.6h-4.7v-7.5h4.6v1.6h-2.9v1.2h2.7v1.6h-2.7v1.3h3Z"/>
    <path class="st2" d="M171.7,66.3c0,2.1-1.6,3.7-3.6,3.7h-3v-7.5h3c2.1,0,3.6,1.6,3.6,3.7ZM170.1,66.3c0-1.3-.8-2.1-2-2.1h-1.3v4.2h1.3c1.2,0,2-.8,2-2.1Z"/>
    <path class="st2" d="M178.8,68.4v1.6h-4.7v-7.5h4.6v1.6h-2.9v1.2h2.7v1.6h-2.7v1.3h3Z"/>
    <path class="st2" d="M183.7,67.6h-.8v2.5h-1.7v-7.5h3c1.4,0,2.6,1.1,2.6,2.6s-.6,1.8-1.4,2.2l1.6,2.7h-1.8l-1.4-2.5ZM182.9,66.1h1.3c.5,0,.9-.4.9-1s-.4-1-.9-1h-1.3v1.9Z"/>
    <path class="st2" d="M193.5,68.9h-2.8l-.4,1.2h-1.9l2.5-7.5h2.2l2.5,7.5h-1.9l-.4-1.2ZM193,67.3l-.9-2.7-.9,2.7h1.8Z"/>
    <path class="st2" d="M202.2,68.4v1.6h-4.4v-7.5h1.7v5.8h2.7Z"/>
    <path class="st2" d="M213.4,65.2c0,1.4-1.1,2.6-2.6,2.6h-1.1v2.3h-1.7v-7.5h2.8c1.5,0,2.6,1.1,2.6,2.6ZM211.7,65.2c0-.5-.4-1-.9-1h-1.1v1.9h1.1c.5,0,.9-.4.9-1Z"/>
    <path class="st2" d="M218.8,68.9h-2.8l-.4,1.2h-1.9l2.5-7.5h2.2l2.5,7.5h-1.9l-.4-1.2ZM218.3,67.3l-.9-2.7-.9,2.7h1.8Z"/>
    <path class="st2" d="M225.1,67.6h-.8v2.5h-1.7v-7.5h3c1.4,0,2.6,1.1,2.6,2.6s-.6,1.8-1.4,2.2l1.6,2.7h-1.8l-1.4-2.5ZM224.3,66.1h1.3c.5,0,.9-.4.9-1s-.4-1-.9-1h-1.3v1.9Z"/>
    <path class="st2" d="M234.4,68.9h-2.8l-.4,1.2h-1.9l2.5-7.5h2.2l2.5,7.5h-1.9l-.4-1.2ZM233.9,67.3l-.9-2.7-.9,2.7h1.8Z"/>
    <path class="st2" d="M246.1,68.4v1.6h-4.4v-7.5h1.7v5.8h2.7Z"/>
    <path class="st2" d="M252.4,68.9h-2.8l-.4,1.2h-1.9l2.5-7.5h2.2l2.5,7.5h-1.9l-.4-1.2ZM251.9,67.3l-.9-2.7-.9,2.7h1.8Z"/>
    <path class="st2" d="M265.3,65.2c0,1.4-1.1,2.6-2.6,2.6h-1.1v2.3h-1.7v-7.5h2.8c1.5,0,2.6,1.1,2.6,2.6ZM263.6,65.2c0-.5-.4-1-.9-1h-1.1v1.9h1.1c.5,0,.9-.4.9-1Z"/>
    <path class="st2" d="M269.5,67.6h-.8v2.5h-1.7v-7.5h3c1.4,0,2.6,1.1,2.6,2.6s-.6,1.8-1.4,2.2l1.6,2.7h-1.8l-1.4-2.5ZM268.7,66.1h1.3c.5,0,.9-.4.9-1s-.4-1-.9-1h-1.3v1.9Z"/>
    <path class="st2" d="M274,66.3c0-2.2,1.7-3.9,3.9-3.9s3.9,1.7,3.9,3.9-1.7,3.9-3.9,3.9-3.9-1.7-3.9-3.9ZM280.1,66.3c0-1.3-1-2.2-2.2-2.2s-2.2.9-2.2,2.2,1,2.2,2.2,2.2,2.2-.9,2.2-2.2Z"/>
    <path class="st2" d="M288.2,64.2h-1.9v5.8h-1.7v-5.8h-1.9v-1.6h5.6v1.6Z"/>
    <path class="st2" d="M294.5,68.4v1.6h-4.7v-7.5h4.6v1.6h-2.9v1.2h2.7v1.6h-2.7v1.3h3Z"/>
    <path class="st2" d="M295.9,66.3c0-2.2,1.6-3.9,3.9-3.9s2.6.7,3.2,1.7l-1.5.9c-.3-.6-1-.9-1.7-.9-1.3,0-2.2.9-2.2,2.2s.9,2.2,2.2,2.2,1.4-.3,1.7-.9l1.5.9c-.6,1.1-1.8,1.7-3.2,1.7-2.3,0-3.9-1.7-3.9-3.9Z"/>
    <path class="st2" d="M304.3,66.3c0-2.2,1.6-3.9,3.9-3.9s2.6.7,3.2,1.7l-1.5.9c-.3-.6-1-.9-1.7-.9-1.3,0-2.2.9-2.2,2.2s.9,2.2,2.2,2.2,1.4-.3,1.7-.9l1.5.9c-.6,1.1-1.8,1.7-3.2,1.7-2.3,0-3.9-1.7-3.9-3.9Z"/>
    <path class="st2" d="M314.7,62.6v7.5h-1.7v-7.5h1.7Z"/>
    <path class="st2" d="M316.5,66.3c0-2.2,1.7-3.9,3.9-3.9s3.9,1.7,3.9,3.9-1.7,3.9-3.9,3.9-3.9-1.7-3.9-3.9ZM322.6,66.3c0-1.3-1-2.2-2.2-2.2s-2.2.9-2.2,2.2,1,2.2,2.2,2.2,2.2-.9,2.2-2.2ZM321,61.9l1.2-1.5h-1.9l-.9,1.5h1.5Z"/>
    <path class="st2" d="M332,62.6v7.5h-1.3l-2.9-4.1v4.1h-1.7v-7.5h1.3l2.9,4.1v-4.1h1.7Z"/>
  </g>
  <g>
    <path class="st3" d="M89.1,76.7c0-2,1.5-3.5,3.5-3.5s2.3.6,2.9,1.6l-1.3.8c-.3-.5-.9-.8-1.6-.8-1.2,0-2,.8-2,2s.8,2,2,2,1.3-.3,1.6-.8l1.3.8c-.6,1-1.7,1.6-2.9,1.6-2.1,0-3.5-1.5-3.5-3.5Z"/>
    <path class="st3" d="M97.4,76.7c0-2,1.6-3.5,3.5-3.5s3.5,1.5,3.5,3.5-1.6,3.5-3.5,3.5-3.5-1.5-3.5-3.5ZM103,76.7c0-1.2-.9-2-2-2s-2,.8-2,2,.9,2,2,2,2-.8,2-2Z"/>
    <path class="st3" d="M112.3,73.2v6.8h-1.2l-2.6-3.7v3.7h-1.6v-6.8h1.2l2.6,3.7v-3.7h1.6Z"/>
    <path class="st3" d="M119.5,74.7h-1.8v5.3h-1.6v-5.3h-1.7v-1.5h5.1v1.5Z"/>
    <path class="st3" d="M124.1,77.8h-.7v2.2h-1.6v-6.8h2.7c1.3,0,2.3,1,2.3,2.3s-.5,1.6-1.3,2l1.4,2.5h-1.7l-1.3-2.2ZM123.3,76.5h1.2c.4,0,.8-.4.8-.9s-.4-.9-.8-.9h-1.2v1.8Z"/>
    <path class="st3" d="M133.3,79h-2.5l-.3,1.1h-1.7l2.3-6.8h2l2.3,6.8h-1.7l-.3-1.1ZM132.8,77.5l-.8-2.5-.8,2.5h1.6Z"/>
    <path class="st3" d="M142.7,77.8h-.7v2.2h-1.6v-6.8h2.7c1.3,0,2.3,1,2.3,2.3s-.5,1.6-1.3,2l1.4,2.5h-1.7l-1.3-2.2ZM142,76.5h1.2c.4,0,.8-.4.8-.9s-.3-.9-.8-.9h-1.2v1.8Z"/>
    <path class="st3" d="M149.4,73.2v6.8h-1.6v-6.8h1.6Z"/>
    <path class="st3" d="M156.3,78.6v1.5h-4.3v-6.8h4.2v1.5h-2.7v1.1h2.4v1.5h-2.4v1.2h2.7Z"/>
    <path class="st3" d="M158.2,78.5l1.3-.8c.2.6.7.9,1.4.9s.9-.3.9-.6c0-.4-.4-.6-1.4-.9-1-.3-2-.8-2-2.1s1.1-2.1,2.3-2.1,2,.5,2.5,1.5l-1.3.8c-.2-.5-.6-.8-1.2-.8s-.7.2-.7.5.2.5,1.2.8c1,.3,2.2.7,2.2,2.1s-1,2.1-2.5,2.1-2.3-.7-2.7-1.7Z"/>
    <path class="st3" d="M172.3,76.8c0,2.1-1.4,3.3-3.4,3.3s-3.7-1.6-3.7-3.5,1.6-3.5,3.6-3.5,2.4.6,3,1.6l-1.3.8c-.3-.4-.9-.8-1.7-.8-1.1,0-2,.8-2,2s.8,2,2.1,2,1.5-.4,1.7-1h-1.8v-1.4h3.4v.6Z"/>
    <path class="st3" d="M174.3,76.7c0-2,1.6-3.5,3.5-3.5s3.5,1.5,3.5,3.5-1.6,3.5-3.5,3.5-3.5-1.5-3.5-3.5ZM179.8,76.7c0-1.2-.9-2-2-2s-2,.8-2,2,.9,2,2,2,2-.8,2-2Z"/>
    <path class="st3" d="M183.1,78.5l1.3-.8c.2.6.7.9,1.4.9s.9-.3.9-.6c0-.4-.4-.6-1.4-.9-1-.3-2-.8-2-2.1s1.1-2.1,2.3-2.1,2,.5,2.5,1.5l-1.3.8c-.2-.5-.6-.8-1.2-.8s-.7.2-.7.5.2.5,1.2.8c1,.3,2.2.7,2.2,2.1s-1,2.1-2.5,2.1-2.3-.7-2.7-1.7Z"/>
    <path class="st3" d="M193.2,78.5l1.3-.8c.2.6.7.9,1.4.9s.9-.3.9-.6c0-.4-.4-.6-1.4-.9-1-.3-2-.8-2-2.1s1.1-2.1,2.3-2.1,2,.5,2.5,1.5l-1.3.8c-.2-.5-.6-.8-1.2-.8s-.7.2-.7.5.2.5,1.2.8c1,.3,2.2.7,2.2,2.1s-1,2.1-2.5,2.1-2.3-.7-2.7-1.7Z"/>
    <path class="st3" d="M204.6,79h-2.5l-.3,1.1h-1.7l2.3-6.8h2l2.3,6.8h-1.7l-.3-1.1ZM204.2,77.5l-.8-2.5-.8,2.5h1.6Z"/>
    <path class="st3" d="M214.1,73.2v6.8h-1.2l-2.6-3.7v3.7h-1.6v-6.8h1.2l2.6,3.7v-3.7h1.6Z"/>
    <path class="st3" d="M218.3,73.2v6.8h-1.6v-6.8h1.6Z"/>
    <path class="st3" d="M225.5,74.7h-1.7v5.3h-1.6v-5.3h-1.8v-1.5h5.1v1.5Z"/>
    <path class="st3" d="M231.2,79h-2.5l-.3,1.1h-1.7l2.3-6.8h2l2.3,6.8h-1.7l-.3-1.1ZM230.7,77.5l-.8-2.5-.8,2.5h1.6Z"/>
    <path class="st3" d="M237.6,77.8h-.7v2.2h-1.6v-6.8h2.7c1.3,0,2.3,1,2.3,2.3s-.5,1.6-1.3,2l1.4,2.5h-1.7l-1.3-2.2ZM236.8,76.5h1.2c.4,0,.8-.4.8-.9s-.4-.9-.8-.9h-1.2v1.8Z"/>
    <path class="st3" d="M244.3,73.2v6.8h-1.6v-6.8h1.6Z"/>
    <path class="st3" d="M246.7,76.7c0-2,1.6-3.5,3.5-3.5s3.5,1.5,3.5,3.5-1.6,3.5-3.5,3.5-3.5-1.5-3.5-3.5ZM252.2,76.7c0-1.2-.9-2-2-2s-2,.8-2,2,.9,2,2,2,2-.8,2-2Z"/>
    <path class="st3" d="M255.5,78.5l1.3-.8c.2.6.7.9,1.4.9s.9-.3.9-.6c0-.4-.4-.6-1.4-.9-1-.3-2-.8-2-2.1s1.1-2.1,2.3-2.1,2,.5,2.5,1.5l-1.3.8c-.2-.5-.6-.8-1.2-.8s-.7.2-.7.5.2.5,1.2.8c1,.3,2.2.7,2.2,2.1s-1,2.1-2.5,2.1-2.3-.7-2.7-1.7Z"/>
  </g>
</svg>