<?xml version="1.0" encoding="UTF-8"?><svg id="Capa_1" xmlns="http://www.w3.org/2000/svg" viewBox="0 0 512 512"><defs><style>.cls-1{fill:#102e44;}.cls-2{fill:#fdfdfc;}.cls-3{fill:#194e7b;}</style></defs><path class="cls-1" d="M501.72,250.86c0,138.55-112.31,250.86-250.86,250.86S0,389.41,0,250.86,112.31,0,250.86,0s250.86,112.31,250.86,250.86ZM475.7,250.56c0-124.15-100.65-224.8-224.8-224.8S26.1,126.41,26.1,250.56s100.65,224.8,224.8,224.8,224.8-100.65,224.8-224.8Z"/><path class="cls-3" d="M475.7,250.56c0,124.15-100.65,224.8-224.8,224.8S26.1,374.72,26.1,250.56,126.75,25.76,250.9,25.76s224.8,100.65,224.8,224.8ZM283.63,84.36l-16.69-43.49c-2.38.45-8.62-1.52-10.25-.07l-18.97,38.88c-.93.69-1.39-4.98-2.18-5.17l-22.64,3.77c4.59-10.78,11.24-20.52,16.65-30.9.17-.81-1.12-6-1.64-6.36-1.42-.96-29.5,6.49-33.74,5.88-.21,1.33.58,8.1,1.67,8.38l21.27-4.17c.28.26-1.9,4.32-2.26,5-2.23,4.24-14.96,24.87-14.92,27.47.02,1.53,1.27,3.74,1.3,5.42.44.38,4.26-.42,5.2-.57,11.19-1.86,25.62-6.89,36.7-6.43,1.04.04,1.96.49,2.98.46.69-1.52,3.78-9,5.01-9.23l18.62,1.36c1.87,2.93,1.22,8.55,5.72,9.26.99.16,7.82.75,8.15.51ZM346.86,62.36l-29.51-11.04c-5.31,12.46-10.34,25.04-15.36,37.61l.11,1.56c1.59.26,7.76,3.27,8.73,2.58l5.43-13.42,17.71,7.07c.48-.1,3.4-7.44,3.04-7.94l-16.36-5.89c-2.88-1.46,2.69-8.44,2.33-11l20.82,7.98,3.06-7.5ZM181.02,52.09l-29.94,12.15,17.34,39.33,30-13.39-2.85-7.21c-3.03.74-19.9,9.85-21.48,8.84-.4-.25-3.69-8.14-3.28-8.79l17.07-7.53c.17-.28-1.87-5.6-2.24-6.24-.24-.41-.34-.92-.99-.74l-17.33,7.47c-.55-.12-3.87-8.07-3.59-8.44l19.2-8.21c1.43-1.57-1.71-5.32-1.92-7.23ZM371.83,88.42c2.4,1.64,5.53,3.07,7.98,4.79,1.05-.84,4.85-5.49,4.32-6.51l-25.7-16.81-24.19,34.31,27.33,18.12c.64-1.3,4.45-5.43,3.83-6.59l-17.59-11.95c-.51-.34-.55-.73-.4-1.29.13-.52,4.86-7.25,5.31-7.28l16.15,10.68c.12-1.63,4.4-5.76,3.7-6.97-3.9-2.14-7.71-4.58-11.33-7.17-.86-.62-4.12-2.69-4.02-3.35.9-.76,4.06-6.84,4.47-6.91,1.17-.19,7.72,4.7,9.25,5.74.46.31.65.99.91,1.17ZM163.73,105.45c-.54-.56-13.98-3.98-14.8-5.14,2.09-7.27,2.1-13.33-3.93-18.52-12.56-10.82-25.86,5.41-36.07,11.73l26.06,34.84,7.65-5.82c.06-.76-6.5-8.07-7.24-9.62-.2-.42-.44-.9-.19-1.34.21-.36,6.56-4.28,7.15-4.26,2.91.11,10.85,5.06,13.05,4.59.64-.14,6.68-4.59,7.72-5.4.32-.25,1.28-.35.59-1.07ZM407.27,251.06c0-86.34-69.99-156.33-156.33-156.33S94.62,164.73,94.62,251.06s69.99,156.33,156.33,156.33,156.33-69.99,156.33-156.33ZM396.31,134.76c-4.21,2.81-7.08,4.21-11.67,1.05s-5.27-9.25-1.49-13.51l19.42-17.61c.13-.6-5.34-6.44-6.37-7.18-.39-.07-2.49,1.65-2.99,2.07-4.86,4.14-17.05,14.54-19.74,19.6-4.9,9.2-.38,20.16,8.37,25.05,7.63,4.26,14.06,3.06,20.76-2.01,6.45-4.88,12.18-11.54,18.51-16.62.8-1.11-.68-1.01-1.44-1.86-.87-.97-3.67-5.34-4.9-4.93-1.02.35-5.39,4.13-6.56,5.13-3.88,3.31-7.7,8.02-11.89,10.82ZM98.16,105.45h-.68c-1.19,1.15-6.51,6.36-6.26,7.66.07.37,4.77,4.53,5.54,5.23,4.41,3.96,14.99,10.88,16.64,16.14,2.1,6.72-3.28,12.62-10.27,11.67-3.86-.52-10.38-7.11-13.63-9.78s-7.08-5.02-9.84-8.43l-6.33,7.25c0,.81,1.52,1.98,2.14,2.56,4.09,3.85,14.94,12.97,19.56,15.57,8.94,5.02,18.52,1.55,24.41-6.23,7.02-9.26,4.45-18.5-3.72-25.71-5.42-4.79-11.2-9.37-16.64-14.27-.5-.45-.86-.97-.92-1.66ZM412.9,199.58l38.35-18.02c-1.34-1.37-1.99-6.6-3.56-7.18l-28.7-2.66,15.73-23.64c.35-1.13-1.97-7.61-2.94-7.92l-38.08,17.77c-.65.9,3.28,6.93,3.53,8.42l21.74-9.85-10.87,17.46-.37,4.56,23.89,1.87-.6,1.05-21.21,10.17,3.08,7.98ZM82.71,185.52c1.22-4.59,4.95-9.62,5.58-14.32,1.7-12.71-10.19-21.94-21.82-16.2-6.48,3.2-10.16,13.44-12.8,19.99-.45,1.13-2.56,6.12-2.14,6.79l37.13,16.78c.58.11.76-.27,1.03-.67.49-.74,3.55-7.76,3.3-8.11l-10.27-4.26ZM116.42,368.66l-16.38,15.23,2.54,3.07c1.75,1.37,3.11-1.82,4.47-3.08,1.28-1.19,3.41-3.23,4.69-4.21.47-.36.59-.91,1.41-.7l-1.44,15.7c-.08.82,2.16,3.84,2.66,3.95,1.07.23,13.59-13.64,15.62-15.23.11-.5-3.75-3.78-4.19-3.48-2.07,3.4-5.93,5.66-8.43,8.9l.96-16.65c.12-1.56-1.77-1.96-1.91-3.49ZM386.65,400.03c.14-1.62,2.59-2.56,2.72-4.05.12-1.28-2.14-3.21-1.57-4.36,1.35-.83,6.76-7.52,7.44-7.45.86.09,2.67,2.01,4.24,1.7.81-.16,2.68-2.8,3.56-3.4l-21.66-8.59c-1.31.5-4.01,2.72-3.87,4.19l8.18,21.69.96.27ZM362.31,401.44l16.65,3.68c1.34-.05,2.6-1.51,3.37-2.51l-13.23-17.12c-.74-.01-3.64,3.08-3.51,3.29.02.03.57-.1.75.17.31.45.33,1.04.64,1.47,1.96,2.66,4.58,5.14,6.1,8.2-.92.7-14.97-4.18-17.31-3.02l-2.83,2.32,13.13,17.57,4.19-3.1-7.94-10.95ZM126.43,409.23c13.17,13.03,30.37-7.3,15.06-17.63-12.03-8.13-24.72,8.07-15.06,17.63ZM159.98,430l-.88-7.69c.2-.83,3.62-.9,4.96-1.58,1.76-.9,3.45-3.16,3.77-5.12,1.31-7.99-8.55-10.94-13.93-14.17l-10.81,19.41,4.43,2.18,2.67-5.16c.67-.47,4.21,2.06,4.54,3.12.45,1.45.32,6.47.67,7.06.19.33,4.17,2.39,4.58,1.96ZM363.24,418.29l-19.07-13.97c-1.79-.54-3.92,1.46-5.24,2.57l2.77,23.58c5.52-1.43,3.61-3.77,4.03-8.01,2.26-.21,6.78-4.45,8.45-4.55,1.19-.07,2.98,2.51,4.21,2.63s3.29-2.35,4.84-2.25ZM180.13,430l-2.57-15.93-3.98-1.87c-.83,2.73-8.9,20.16-7.93,21.5.21.29,3.5.91,4.17,1.45l4.23-12.18c.71.09.75.66.89,1.22.8,3.23,1.1,7.3,1.44,10.64.1.43,2.24,1.33,2.83,1.06l9.83-7.3-4.72,12.36,4.69,1.67c.54-3.51,8.11-18.43,7.55-20.75-.17-.69-3.87-1.8-4.71-1.01-3.42,2.64-7.03,6.28-10.54,8.66-.39.26-.45.67-1.17.46ZM332.34,414.56c-10.07-4.79-21.48,5.92-16.49,16.24,3.53,7.29,15.19,7.65,20.16,1.71.41-.49,1.85-2.82,1.89-3.29.09-1.01-3.96-2.17-4.15-2.03s-.81,2.47-2.66,3.67c-11.11,7.23-16.17-11.74-5.03-13,3.84-.43,4.37,2.02,6.28-3.31ZM308.41,420.68c-.57-.4-5.26.91-4.64,2.49l6.55,19.76,4.68-1.22-6.59-21.03ZM300.95,422.98c-1.18.51-4.23.41-5.03,1.06-.97.8-2.64,6.79-3.41,8.31-.71.19-.78-.19-1.17-.46-1.23-.84-4.52-4.8-5.7-5.09-.64-.15-5,.98-5.29,1.57l9.29,8.53c.68,2.48-5.07,9.92-4.61,13.24,1.19-1.26,4.59-.73,5.5-1.52.78-.67,2.02-6.92,2.95-8.3,1.28-.87,5.72,5.04,7.34,5.52.98.29,5.28-.92,5.27-1.56l-9.77-9,4.62-12.31ZM212.81,425.88c-.33-.24-4.77-1.25-5.31-.61l-14.26,19.24c1.2-.13,3.44,1.02,4.4.84,1.13-.22,2.06-3.37,3.09-3.89.8-.4,10.12,1.77,10.66,2.23.95.8.13,3.93,1.28,5.05.9.87,3.67.95,4.92.93-1.36-2.78-3.79-23.09-4.78-23.79ZM278.92,432.32c.15-.16.36-3.97-.74-4.15l-16.09,1.84,1.87,22.01c2.1-.12,16.63-1.14,17.13-1.85.41-.59.41-3.12-.23-3.57-1-.7-9.6.99-11.47,1.15-.76-.19-1.42-4.57-1.01-5.13,1.38-.99,9.51-.59,10.04-1.44.37-.59-.11-2.78.06-3.68-1.54.08-10.21,1.54-10.77.94-.16-.17-.17-3.9-.47-4.68,1.54-.33,11.27-1.01,11.68-1.43ZM252.72,439.84v12.65h4.68v-22.48l-4.56.59c-2.37,4.3-4.8,8.76-7.51,12.85-.2.3.13.84-.8.61-.77-.19-6.29-12.37-7.71-13.84-.68-.96-3.97-1-4.5-.24l-.69,21.82,4.71.22.47-12.65c1.01.75,1.79,2.32,2.42,3.43,1.2,2.12,3.32,9.66,6.71,6.87,1.92-1.58,4.06-8.26,6.79-9.83Z"/><path class="cls-2" d="M283.63,84.36c-.33.24-7.16-.35-8.15-.51-4.51-.72-3.85-6.33-5.72-9.26l-18.62-1.36c-1.23.23-4.32,7.71-5.01,9.23-1.03.03-1.94-.42-2.98-.46-11.08-.46-25.51,4.57-36.7,6.43-.94.16-4.76.95-5.2.57-.03-1.68-1.28-3.89-1.3-5.42-.04-2.6,12.69-23.24,14.92-27.47.36-.68,2.54-4.74,2.26-5l-21.27,4.17c-1.09-.28-1.88-7.05-1.67-8.38,4.25.61,32.33-6.84,33.74-5.88.53.36,1.81,5.55,1.64,6.36-5.4,10.38-12.06,20.11-16.65,30.9l22.64-3.77c.79.19,1.24,5.87,2.18,5.17l18.97-38.88c1.63-1.45,7.86.52,10.25.07l16.69,43.49ZM262.08,50.65c-1.12-.19-1.4.93-1.81,1.7-2.15,3.98-3.42,8.9-5.95,12.8-.3.5-.25.89.25,1.2,1.12.69,10.62.41,12.66.69l-5.16-16.39Z"/><path class="cls-2" d="M181.02,52.09c.21,1.91,3.35,5.66,1.92,7.23l-19.2,8.21c-.27.37,3.05,8.32,3.59,8.44l17.33-7.47c.65-.17.75.33.99.74.37.64,2.41,5.96,2.24,6.24l-17.07,7.53c-.41.65,2.88,8.53,3.28,8.79,1.58,1.01,18.45-8.1,21.48-8.84l2.85,7.21-30,13.39-17.34-39.33,29.94-12.15Z"/><path class="cls-2" d="M98.16,105.45c.05.69.42,1.21.92,1.66,5.45,4.9,11.22,9.49,16.64,14.27,8.16,7.21,10.73,16.45,3.72,25.71-5.89,7.78-15.47,11.25-24.41,6.23-4.62-2.59-15.47-11.71-19.56-15.57-.61-.58-2.14-1.75-2.14-2.56l6.33-7.25c2.76,3.42,6.47,5.67,9.84,8.43s9.78,9.26,13.63,9.78c6.98.95,12.37-4.96,10.27-11.67-1.65-5.26-12.23-12.19-16.64-16.14-.77-.69-5.47-4.85-5.54-5.23-.24-1.29,5.07-6.51,6.26-7.65h.68Z"/><path class="cls-2" d="M412.9,199.58l-3.08-7.98,21.21-10.17.6-1.05-23.89-1.87.37-4.56,10.87-17.46-21.74,9.85c-.25-1.49-4.18-7.52-3.53-8.42l38.08-17.77c.96.31,3.29,6.79,2.94,7.92l-15.73,23.64,28.7,2.66c1.57.58,2.21,5.81,3.56,7.18l-38.35,18.02Z"/><path class="cls-2" d="M396.31,134.76c4.19-2.8,8.02-7.51,11.89-10.82,1.17-1,5.54-4.78,6.56-5.13,1.23-.42,4.03,3.95,4.9,4.93.76.85,2.24.75,1.44,1.86-6.33,5.08-12.06,11.74-18.51,16.62-6.69,5.07-13.12,6.27-20.76,2.01-8.75-4.89-13.27-15.85-8.37-25.05,2.7-5.05,14.88-15.46,19.74-19.6.5-.42,2.59-2.14,2.99-2.07,1.03.74,6.49,6.57,6.37,7.18l-19.42,17.61c-3.78,4.26-3.25,10.25,1.49,13.51s7.47,1.76,11.67-1.05Z"/><path class="cls-2" d="M371.83,88.42c-.26-.18-.45-.85-.91-1.17-1.53-1.04-8.08-5.93-9.25-5.74-.41.07-3.57,6.14-4.47,6.91-.09.66,3.16,2.74,4.02,3.35,3.62,2.59,7.43,5.03,11.33,7.17.7,1.2-3.58,5.34-3.7,6.97l-16.15-10.68c-.45.04-5.18,6.77-5.31,7.28-.14.56-.11.95.4,1.29l17.59,11.95c.62,1.17-3.19,5.3-3.83,6.59l-27.33-18.12,24.19-34.31,25.7,16.81c.53,1.01-3.27,5.67-4.32,6.51-2.45-1.73-5.58-3.16-7.98-4.79Z"/><path class="cls-2" d="M346.86,62.36l-3.06,7.5-20.82-7.98c.36,2.56-5.21,9.54-2.33,11l16.36,5.89c.36.5-2.56,7.84-3.04,7.94l-17.71-7.07-5.43,13.42c-.96.69-7.13-2.32-8.73-2.58l-.11-1.56c5.02-12.57,10.05-25.16,15.36-37.61l29.51,11.04Z"/><path class="cls-3" d="M262.08,50.65l5.16,16.39c-2.04-.28-11.54,0-12.66-.69-.51-.31-.55-.7-.25-1.2,2.53-3.9,3.8-8.82,5.95-12.8.41-.77.69-1.88,1.81-1.7Z"/><path class="cls-2" d="M163.73,105.45c.69.72-.27.82-.59,1.07-1.04.81-7.07,5.26-7.72,5.4-2.21.47-10.14-4.48-13.05-4.59-.59-.02-6.94,3.9-7.15,4.26-.26.44,0,.92.19,1.34.73,1.55,7.3,8.85,7.24,9.62l-7.65,5.82-26.06-34.84c10.21-6.32,23.51-22.55,36.07-11.73,6.03,5.2,6.02,11.25,3.93,18.52.82,1.16,14.25,4.58,14.8,5.14ZM138.76,89.2c-6.11-5.38-12.38,1.61-17.16,5.29l8.42,11.21c1.08.46,4.64-2.47,5.61-3.29,3.75-3.17,8.1-8.83,3.13-13.21Z"/><path class="cls-3" d="M138.76,89.2c4.97,4.38.62,10.03-3.13,13.21-.97.82-4.53,3.75-5.61,3.29l-8.42-11.21c4.79-3.68,11.06-10.66,17.16-5.29Z"/><path class="cls-2" d="M82.71,185.52l10.27,4.26c.26.36-2.81,7.38-3.3,8.11-.26.4-.45.78-1.03.67l-37.13-16.78c-.42-.67,1.69-5.66,2.14-6.79,2.63-6.54,6.31-16.79,12.8-19.99,11.64-5.73,23.52,3.49,21.82,16.2-.63,4.69-4.36,9.73-5.58,14.32ZM77.76,165.65c-7.58-8.24-14.28,3.44-14.99,10.52,1.98,1.12,11.22,5.99,12.82,5.05.24-.14,2.07-4.24,2.32-4.93,1.32-3.67,2.74-7.48-.15-10.64Z"/><path class="cls-3" d="M77.76,165.65c2.9,3.15,1.47,6.96.15,10.64-.25.69-2.09,4.8-2.32,4.93-1.61.93-10.85-3.93-12.82-5.05.72-7.08,7.42-18.76,14.99-10.52Z"/><path class="cls-2" d="M180.13,430c.72.2.78-.2,1.17-.46,3.52-2.38,7.12-6.02,10.54-8.66.83-.79,4.54.31,4.71,1.01.56,2.32-7.01,17.24-7.55,20.75l-4.69-1.67,4.72-12.36-9.83,7.3c-.58.27-2.73-.63-2.83-1.06-.34-3.35-.64-7.42-1.44-10.64-.14-.55-.17-1.13-.89-1.22l-4.23,12.18c-.67-.54-3.95-1.16-4.17-1.45-.98-1.34,7.09-18.77,7.93-21.5l3.98,1.87,2.57,15.93Z"/><path class="cls-2" d="M252.72,439.84c-2.74,1.57-4.88,8.24-6.79,9.83-3.39,2.8-5.51-4.75-6.71-6.87-.63-1.11-1.41-2.68-2.42-3.43l-.47,12.65-4.71-.22.69-21.82c.54-.77,3.83-.73,4.5.24,1.42,1.47,6.94,13.66,7.71,13.84.93.23.61-.31.8-.61,2.71-4.09,5.14-8.55,7.51-12.85l4.56-.59v22.48h-4.68v-12.65Z"/><path class="cls-2" d="M116.42,368.66c.14,1.53,2.03,1.93,1.91,3.49l-.96,16.65c2.51-3.23,6.37-5.5,8.43-8.9.44-.31,4.3,2.98,4.19,3.48-2.03,1.6-14.56,15.46-15.62,15.23-.51-.11-2.74-3.13-2.66-3.95l1.44-15.7c-.81-.21-.94.34-1.41.7-1.28.98-3.41,3.02-4.69,4.21-1.36,1.27-2.72,4.45-4.47,3.08l-2.54-3.07,16.38-15.23Z"/><path class="cls-2" d="M362.31,401.44l7.94,10.95-4.19,3.1-13.13-17.57,2.83-2.32c2.34-1.16,16.39,3.72,17.31,3.02-1.51-3.06-4.13-5.54-6.1-8.2-.32-.43-.34-1.02-.64-1.47-.18-.26-.73-.14-.75-.17-.13-.2,2.77-3.3,3.51-3.29l13.23,17.12c-.77,1-2.04,2.46-3.37,2.51l-16.65-3.68Z"/><path class="cls-2" d="M278.92,432.32c-.41.42-10.15,1.1-11.68,1.43.3.78.31,4.51.47,4.68.57.6,9.23-.86,10.77-.94-.17.9.31,3.09-.06,3.68-.53.86-8.66.45-10.04,1.44-.41.56.25,4.94,1.01,5.13,1.87-.16,10.47-1.85,11.47-1.15.64.45.65,2.98.23,3.57-.49.71-15.02,1.72-17.13,1.85l-1.87-22.01,16.09-1.84c1.1.19.9,4,.74,4.15Z"/><path class="cls-2" d="M386.65,400.03l-.96-.27-8.18-21.69c-.14-1.47,2.56-3.69,3.87-4.19l21.66,8.59c-.88.6-2.75,3.24-3.56,3.4-1.57.31-3.38-1.61-4.24-1.7-.68-.07-6.09,6.62-7.44,7.45-.57,1.15,1.68,3.08,1.57,4.36-.14,1.49-2.58,2.43-2.72,4.05ZM390.88,382.24l-7.96-2.81,3.51,7.95c.62-.86,5-4.36,4.45-5.14Z"/><path class="cls-2" d="M363.24,418.29c-1.56-.1-3.63,2.37-4.84,2.25s-3.01-2.69-4.21-2.63c-1.67.09-6.19,4.34-8.45,4.55-.43,4.24,1.49,6.58-4.03,8.01l-2.77-23.58c1.31-1.11,3.44-3.11,5.24-2.57l19.07,13.97ZM344.05,409.87c.07,1.28.26,8.84,1.16,8.89.34.02,5.54-3.12,5.37-3.92-.18-.86-5.6-3.97-6.53-4.96Z"/><path class="cls-2" d="M300.95,422.98l-4.62,12.31,9.77,9c0,.65-4.29,1.85-5.27,1.56-1.62-.48-6.06-6.39-7.34-5.52-.93,1.38-2.17,7.62-2.95,8.3-.91.79-4.31.25-5.5,1.52-.46-3.32,5.29-10.76,4.61-13.24l-9.29-8.53c.29-.59,4.65-1.73,5.29-1.57,1.18.29,4.48,4.24,5.7,5.09.39.27.47.65,1.17.46.77-1.52,2.43-7.51,3.41-8.31.79-.65,3.85-.54,5.03-1.06Z"/><path class="cls-2" d="M332.34,414.56c-1.91,5.33-2.44,2.87-6.28,3.31-11.14,1.26-6.08,20.23,5.03,13,1.85-1.2,2.48-3.53,2.66-3.67s4.24,1.02,4.15,2.03c-.04.47-1.48,2.8-1.89,3.29-4.97,5.94-16.63,5.58-20.16-1.71-5-10.32,6.42-21.03,16.49-16.24Z"/><path class="cls-2" d="M308.41,420.68l6.59,21.03-4.68,1.22-6.55-19.76c-.62-1.58,4.07-2.89,4.64-2.49Z"/><path class="cls-2" d="M126.43,409.23c-9.66-9.56,3.03-25.76,15.06-17.63,15.31,10.34-1.89,30.67-15.06,17.63ZM142.55,401.44c0-4.01-3.25-7.25-7.25-7.25s-7.25,3.25-7.25,7.25,3.25,7.25,7.25,7.25,7.25-3.25,7.25-7.25Z"/><circle class="cls-3" cx="135.29" cy="401.44" r="7.25"/><path class="cls-2" d="M159.98,430c-.41.43-4.39-1.63-4.58-1.96-.34-.6-.22-5.61-.67-7.06-.33-1.05-3.87-3.59-4.54-3.12l-2.67,5.16-4.43-2.18,10.81-19.41c5.37,3.23,15.23,6.18,13.93,14.17-.32,1.96-2.01,4.22-3.77,5.12-1.34.68-4.76.75-4.96,1.58l.88,7.69ZM161.69,410.5c-1.1-1.21-3.6-2.36-5.17-2.94-.73.17-3.55,5.46-3.52,6.68.15.5,4.42,2.72,5.1,2.9,4.23,1.12,6.32-3.65,3.59-6.65Z"/><path class="cls-3" d="M161.69,410.5c2.73,3,.65,7.76-3.59,6.65-.69-.18-4.96-2.4-5.1-2.9-.03-1.22,2.79-6.51,3.52-6.68,1.57.58,4.07,1.73,5.17,2.94Z"/><path class="cls-2" d="M212.81,425.88c.99.7,3.42,21,4.78,23.79-1.25.02-4.02-.06-4.92-.93-1.15-1.11-.33-4.24-1.28-5.05-.54-.45-9.86-2.62-10.66-2.23-1.04.51-1.96,3.67-3.09,3.89-.96.19-3.2-.97-4.4-.84l14.26-19.24c.54-.65,4.98.37,5.31.61ZM210.56,439.37l-1.64-8.89c-.57,1.06-5.54,6.65-4.92,7.49l6.56,1.41Z"/><path class="cls-3" d="M210.56,439.37l-6.56-1.41c-.62-.83,4.35-6.42,4.92-7.49l1.64,8.89Z"/><path class="cls-3" d="M390.88,382.24c.56.77-3.83,4.27-4.45,5.14l-3.51-7.95,7.96,2.81Z"/><path class="cls-3" d="M344.05,409.87c.93,1,6.35,4.11,6.53,4.96.17.8-5.03,3.94-5.37,3.92-.9-.05-1.09-7.61-1.16-8.89Z"/><path class="cls-1" d="M407.27,251.06c0,86.34-69.99,156.33-156.33,156.33s-156.33-69.99-156.33-156.33S164.6,94.74,250.94,94.74s156.33,69.99,156.33,156.33ZM394.91,251.09c0-79.53-64.47-144-144-144S106.9,171.56,106.9,251.09s64.47,144,144,144,144-64.47,144-144Z"/><path class="cls-2" d="M394.91,251.09c0,79.53-64.47,144-144,144s-144-64.47-144-144S171.38,107.09,250.91,107.09s144,64.47,144,144ZM289.71,240.33c-5.66-8.67-11.2-17.66-15.89-26.96l.05-34.55c7.26-4.45,11.58-9.81,10.69-18.8-.81-8.23-8.1-14.2-16.13-14.78-16.04-1.16-33.47.9-49.66.03-10.39,1.88-16.43,9.17-15.23,19.9.71,6.34,5.54,10.67,10.7,13.65l-.03,34.95c-13.62,23.95-28.04,47.45-42.06,71.18-4.51,7.64-16.36,24.32-17.26,32.48-1.92,17.35,9.43,31.33,26.39,33.92h124.61c18.99-1.96,33.87-13.34,39.42-31.76,5.19-17.2-1.01-31.38-9.33-46.14-10.38-18.42-23.31-35.39-33.86-53.71l-12.42,20.6ZM324.55,177.86c-2.03-2.83-2.77-7.02-4.05-10.24l-1.74-8.32c-1.06,5.31-1.79,10.82-4.14,15.77-4.31,9.09-14.54,10.73-23.5,12.33l8.9,2.1c3.17,1.23,6.76,2.51,9.52,4.54,6.26,4.6,7.81,14.31,9.22,21.46l2.92-11.83c3.14-11.24,14.73-14.77,25.18-15.8-.19-.92-.96-.8-1.64-.93-6.5-1.22-16.54-3.32-20.66-9.07Z"/><path class="cls-3" d="M289.71,240.33l12.42-20.6c10.55,18.32,23.48,35.29,33.86,53.71,8.32,14.76,14.52,28.94,9.33,46.14-5.56,18.42-20.44,29.81-39.42,31.76h-124.61c-16.96-2.6-28.32-16.57-26.39-33.92.9-8.16,12.75-24.85,17.26-32.48,14.02-23.73,28.44-47.23,42.06-71.18l.03-34.95c-5.17-2.98-9.99-7.32-10.7-13.65-1.2-10.73,4.84-18.02,15.23-19.9,16.19.88,33.62-1.19,49.66-.03,8.03.58,15.32,6.55,16.13,14.78.89,9-3.43,14.36-10.69,18.8l-.05,34.55c4.69,9.29,10.23,18.29,15.89,26.96ZM282.59,251.94c.37-.76-.27-1.62-.59-2.27-5.38-11.09-14.86-21.82-19.41-33.51l.02-47.2c.42-1.3,4.47-.6,6.06-.97,6.21-1.43,6.44-9.82.21-11.05-15.83,1.12-33.61-1.45-49.21-.01-5.83.54-6.38,7.38-1.85,10.33,3.3,2.15,7.08-1.45,7.67,3.09,1.76,13.4-1.21,30.22.07,43.99-.41,4.74-4.11,9.98-6.49,14.11-16.56,28.8-34.91,56.63-51.06,85.69-5.22,12.23,2.41,23.01,14.68,25.46,28.5.91,57.25-1.11,85.71-.24.67.02,2.08,1.86,2.57-.46-2.02-1.32-5.41-7.84-7.27-8.19l-79.56-.05c-6.92-1.53-10.38-8.66-6.44-14.79l32.86-54.25,64.86-.24c1.63-.32,2.86-3.93,3.89-5.48.79-1.19,1.67-2.32,2.46-3.53.19-.29.77-.34.82-.44ZM302.36,236.58c-.32-.25-1.36,1.54-1.59,1.91-9.36,14.9-30.36,44.86-33.88,60.72-6.77,30.45,28.5,54.84,55.03,37.23,18.58-12.33,19.19-31.95,10.21-50.7-8.28-17.27-20.95-32.19-29.75-49.17Z"/><path class="cls-3" d="M324.55,177.86c4.12,5.75,14.16,7.86,20.66,9.07.68.13,1.45,0,1.64.93-10.45,1.03-22.04,4.56-25.18,15.8l-2.92,11.83c-1.4-7.15-2.96-16.86-9.22-21.46-2.76-2.03-6.35-3.3-9.52-4.54l-8.9-2.1c8.96-1.61,19.19-3.24,23.5-12.33,2.34-4.95,3.08-10.45,4.14-15.77l1.74,8.32c1.28,3.23,2.02,7.41,4.05,10.24Z"/><path class="cls-2" d="M282.59,251.94c-.05.1-.63.16-.82.44-.79,1.21-1.68,2.33-2.46,3.53-1.03,1.55-2.25,5.17-3.89,5.48l-64.86.24-32.86,54.25c-3.94,6.13-.48,13.26,6.44,14.79l79.56.05c1.86.35,5.25,6.87,7.27,8.19-.49,2.32-1.89.48-2.57.46-28.47-.87-57.21,1.15-85.71.24-12.27-2.45-19.9-13.22-14.68-25.46,16.15-29.06,34.5-56.89,51.06-85.69,2.38-4.14,6.08-9.37,6.49-14.11-1.28-13.77,1.69-30.59-.07-43.99-.6-4.54-4.37-.94-7.67-3.09-4.52-2.94-3.97-9.79,1.85-10.33,15.6-1.44,33.38,1.13,49.21.01,6.23,1.23,5.99,9.61-.21,11.05-1.59.37-5.63-.33-6.06.97l-.02,47.2c4.55,11.69,14.03,22.41,19.41,33.51.31.65.95,1.51.59,2.27Z"/><path class="cls-2" d="M302.36,236.58c8.81,16.97,21.48,31.89,29.75,49.17,8.99,18.75,8.37,38.36-10.21,50.7-26.53,17.61-61.79-6.78-55.03-37.23,3.53-15.86,24.53-45.82,33.88-60.72.23-.37,1.27-2.16,1.59-1.91ZM326.11,302.29c-6.39-.28-4.71,6.69-6.66,11.09-1.72,3.88-6.3,8.69-10.21,10.39-2.41,1.05-7.69,1.45-9.02,2.69-3.35,3.12-.46,7.62,3.7,7.48,10.22-.34,19.8-7.95,23.66-17.12,1.4-3.33,4.37-14.29-1.47-14.54Z"/><path class="cls-3" d="M326.11,302.29c5.84.25,2.87,11.21,1.47,14.54-3.86,9.18-13.44,16.78-23.66,17.12-4.17.14-7.05-4.36-3.7-7.48,1.33-1.24,6.6-1.64,9.02-2.69,3.91-1.7,8.49-6.51,10.21-10.39,1.95-4.4.27-11.37,6.66-11.09Z"/></svg>