<?xml version="1.0" encoding="UTF-8"?>
<svg id="Capa_1" xmlns="http://www.w3.org/2000/svg" version="1.1" viewBox="0 0 200 112.2">
  <!-- Generator: Adobe Illustrator 29.8.2, SVG Export Plug-In . SVG Version: 2.1.1 Build 3)  -->
  <defs>
    <style>
      .st0 {
        fill: #DF1119;
      }
    </style>
  </defs>
  <path class="st0" d="M86.3,1c3.6,1,4.7,17.4-2.5,16.1v2.9s40.5,0,40.5,0c2.4,0,9.5,7.1,9.5,9.5v35c0,.8-2.7,2.7-2,4.5h3s0-35.5,0-35.5c0-2.9,3.5-6.9,6.6-7.4,5.8-.9,31.1-.9,36.9,0s10.2,11.3,12.7,16.3c2.1,4.1,6.1,10.9,6.7,15.3s.8,22.6-.1,26.7c-1.7,7.5-11.5,8.5-17.8,7.7,1.6,25.4-34.1,24.7-33,0h-39c.8,24.9-34.8,25.2-33,0h-9.4c-.6,25-34.6,25.3-33.6,0-4.3-.4-9.3.6-13.4,0-7.9-1.2-3.3-10.5-4.7-16.3-.7-1.9-10-3.4-11.6-12.4s-.9-23.8-.2-29.8,4.8-12.1,10.7-13.3,35.9,1.4,39.3-.7,1.2-1.4,1-2.5l-4.1-.4c-1.4-1-1.9-13.8.6-15.6h37ZM52.8,12h29.5c2,0,2-6,0-6h-29.5v6ZM78.8,17h-21v3h21v-3ZM18.8,25c-5.9-.6-10.3,1.2-11,7.5s-.9,26.2,0,31,4.4,6.1,7.4,5.6l108.9-.3c2.4-1.2,4.2-3.7,4.7-6.3.9-5.4.8-24.3.1-30s-3.7-7.5-6.5-7.5H38.8v40.5c0,1-3.1,2.6-4.5.5l-1.1-9h-9.4c-.7.7,1.8,14.9-5,8.5V25ZM33.9,25h-10s0,5,0,5h10s0-5,0-5ZM177.3,31h-35l-1.5,1.5v53.5c9,2.2,9.3-3.2,15.3-6.2s10.2-2.7,15.4,0,4.9,5.6,7.8,6.2,10.3.7,12.5-1.5v-26.5h-26.5l-1.5-1.5v-19l1.5-1.5h15.5c.3-2-1.5-4.7-3.5-5ZM33.9,35h-10s0,6,0,6h10s0-6,0-6ZM189.8,53c-1.2-4.2-3.4-8.9-6.5-12h-14.5v12h21ZM33.9,46h-10s0,6,0,6h10s0-6,0-6ZM134.8,75H19.8v11c3.9-.5,9.7.9,13.3-.2s4.3-4.6,7-6c4.9-2.6,10.6-2.5,15.6-.2s4.7,4.5,7.6,6.5c3.8-.6,9.3.8,12.8-.3s5-5.7,9-7c5.5-1.8,12.2-.8,16.7,2.8s3.2,4.5,3.5,4.5h29.5v-11ZM59.6,94.2c0-6.3-5.1-11.3-11.3-11.3s-11.3,5.1-11.3,11.3,5.1,11.3,11.3,11.3,11.3-5.1,11.3-11.3ZM102.3,94.3c0-6.2-5-11.3-11.3-11.3s-11.3,5-11.3,11.3,5,11.3,11.3,11.3,11.3-5,11.3-11.3ZM174.9,94.3c0-6.2-5.1-11.3-11.3-11.3s-11.3,5.1-11.3,11.3,5.1,11.3,11.3,11.3,11.3-5.1,11.3-11.3Z"/>
  <path class="st0" d="M64.6,28.2c7.4-2.2,17.4,7.6,21.3,13.3s3.1,6.5,1,10.1-15.2,15.2-16.6,15.4c-6.2,1.2-16.1-8.6-19.5-13.5s-3-6.9-1.5-10.5,14.2-14.5,15.2-14.8ZM74.8,56c-2.6,2.2-7-6.3-7-8l-1,6-3-1,.5,4c-3.6-2.4-5.8-8.4-3.5-12.3s2.2-.4,2.7-.9c1-.9,1.9-6.1,5.8-6.8l3.5,11,3-2-1,10c2.6-2.4,9-6.4,7.9-10.3s-10.3-11.2-11.3-11.8c-1.7-1-2.8-1.4-4.8-.8s-11.2,10.3-11.8,11.3c-1,1.7-1.4,2.8-.8,4.8s11.6,12.3,12.5,12.6c4.1,1.2,5.9-3.7,8.3-5.9Z"/>
</svg>