<?xml version="1.0" encoding="UTF-8"?>
<svg id="Layer_1" xmlns="http://www.w3.org/2000/svg" version="1.1" viewBox="0 0 850.4 538.8">
  <!-- Generator: Adobe Illustrator 29.8.2, SVG Export Plug-In . SVG Version: 2.1.1 Build 3)  -->
  <defs>
    <style>
      .st0 {
        fill: #2b3487;
      }
    </style>
  </defs>
  <g>
    <path class="st0" d="M92.3,195.1c2.5-4.1,4.7-3.9,9-1.2,6,3.7,11.2,6.4,18.4,10.1l-1.6,3.9-14.6-9.6c-4.5-2.9-5.6-1.9-7.2.7-1.5,2.4-2.3,3-3.7,1.9l-4.2-3.2,1.1-1.5c1.1.7,1.9.2,2.7-1Z"/>
    <path class="st0" d="M103,178.9c2.6-3.3,4.8-3.2,7.1-1.3,2.2,1.8,4.6,5.3,7.7,9.4l-2.1,3.6c-2.1-4.1-3.6-7.1-5.1-8.3-1.4-1.1-2.7-.8-4.4,1.4l-.5.6c-1.5,1.8-2.3,2.3-3.6,1l-3.7-3.7,1.3-1.4c1.3,1.1,2.2.1,3.3-1.3ZM111.6,168.3c2.6-3.3,4.8-3.2,7.1-1.3,2.2,1.8,4.6,5.3,7.7,9.4l-2.1,3.6c-2.1-4.1-3.6-7.1-5.1-8.3-1.4-1.1-2.7-.8-4.4,1.4l-.5.6c-1.5,1.8-2.3,2.3-3.6,1l-3.7-3.7,1.3-1.4c1.3,1.1,2.2.1,3.3-1.3Z"/>
    <path class="st0" d="M133.5,146.4c4.9-4.5,7.7-3.5,11.3.5,4.1,4.6,8.9,9.2,14.3,14.2l-2.6,3.3-11-12.8c-3.5-4.1-5.7-3.5-8.9-.6l-6.1,5.5c1.8,5.2,2.9,6.4,3.5,7.1.5.6,1.8,2,9.1,5.2l2.9,4.2-4.5,4.1c-1,.9-1.1,1-1.2,1.7l-1.4.9-2.1-3.8c-.6-1.1-.4-1.3,2.3-3.7l.9-.8c-5.8-3-7.3-4.2-7.8-4.7-.4-.5-1.1-1.5-3.4-8.7l-1.2,1.1c-1.7,1.6-2.7,1.9-3.7.5l-3.1-4.2,1.4-1.1c.9,1,1.8.7,3.3-.7l8-7.3Z"/>
    <path class="st0" d="M164.6,129.2c-2,1.3-2.9,1.4-3.7-.2l-2.3-4.7,1.6-.9c.7,1.1,1.6,1.1,3.4,0l15.1-9.5,2.2,4.9c-2.5,1.7-2.6,2.8-1.7,4.1,1.5,2.4,6.5,9.3,11.7,16.5l-3.1,2.8-12-19.9-11,6.9Z"/>
    <path class="st0" d="M187.2,109.3c4.2-2.3,6-1,8.4,3.5,3.3,6.2,6.5,11.2,10.9,18l-3.3,2.6-7.8-15.6c-2.4-4.8-3.9-4.5-6.5-3-2.5,1.4-3.5,1.4-4.1-.2l-2-4.9,1.7-.8c.6,1.2,1.6,1.2,2.8.5Z"/>
    <path class="st0" d="M203.1,107.1c-2.1,1-3.1,1-3.7-.7l-1.7-5,1.7-.7c.6,1.2,1.5,1.3,3.4.4l16.1-7.5,1.5,5.1c-2.7,1.3-2.9,2.4-2.3,3.9,1.2,2.6,5.2,10.1,9.5,17.9l-3.5,2.4-9.4-21.3-11.8,5.5Z"/>
    <path class="st0" d="M240.5,83.4c.4,1.2,1.4,1.4,3.3.7l1.4-.5c2.2-.8,3.1-1.1,3.5,1.1l1.2,5.2,11.3,27.7-3.8,2.1-9.3-27.1c-1.1-3.3-1.8-3.7-4.8-2.6-2.2.8-3.2.7-3.6-1l-1.2-5.1,1.8-.5Z"/>
    <path class="st0" d="M263,77.7c4.7-1.4,6.2.1,7.6,4.5,1.7,5.3,4,13.1,9.1,19.7l-3.6,1.8c-1.5-2.6-2.7-5.3-3.7-7.9-.8,3-1.3,6-1.6,8.9l-3.9,1.2c-1.3.4-1.5.4-1.8,1.1l-1.7.2-.3-4.3c0-1.1,0-1.3,2.9-2.1l2.8-.9c.5-.6,1.9-4.5,2.3-8.2-.5-1.4-1-2.9-1.4-4.2-1.6-5.1-3-5.1-6.2-4.1-2.8.9-3.8.8-4.1-1l-1-5.2,1.8-.4c.4,1.3,1.2,1.5,3,.9Z"/>
    <path class="st0" d="M280.4,72.5c3.3-.8,4.7.5,5.4,3.3.2.8.3,1.7.4,2.7,1.5-2.8,2.8-5.6,3.8-8.4l5.9-1.4c6-1.5,9,4.8,10.7,11.8,1.3,5.2,1.8,10.9,1.9,14.1l-12.7,3.1c-1.3.3-1.5.4-1.9,1h-1.7c0,0,0-4.2,0-4.2,0-1.2.3-1.3,3.7-2.1l9.2-2.3c-.2-2.2-.5-4.7-1.1-6.9-1.3-5.3-3.6-9.9-9.3-8.5-4.4,1.1-8,4.8-8,10.3,0,4.1.3,9.1,1.1,14.7l-3.8,1.7c.3-6,.2-17.7-.6-21.1-.5-2.1-1.4-2.4-2.7-2-2.8.7-3.7.5-4-1.2l-.7-5.2,1.8-.3c.3,1.3,1.2,1.5,2.6,1.2Z"/>
    <path class="st0" d="M341,60.2c6.5-1,9.1,1,9.8,6.2.8,5.6.9,10.9-.3,13.5-.7,1.7-1.7,2.4-7.5,7.3-1.1.9-1.4,1.3-1.8,1.9h-1.6c0,0,.3-4.7.3-4.7,0-.5.2-1.1.7-1.6,4.9-3.9,6.5-5.4,7.5-6.6.7-1.8.7-3.9.4-6-.7-4.4-3.2-5.2-8.2-4.4l-9.6,1.4c-2.3.3-3.3.1-3.3-1.7l-.2-5.2h1.8c.2,1.2,1.1,1.5,3.2,1.2l8.7-1.3ZM333.6,74.3l3.8,24.3-4.1,1.3c-.7-8.2-1.5-16.3-2.5-24.3l2.2-1.4h.7Z"/>
    <path class="st0" d="M361.2,57.6c4.2-.4,5.7,1.2,6,4.2.3,2.9-.5,7-1.3,12.1l-4,1.1c1.5-4.4,2.5-7.6,2.3-9.5-.2-1.8-1.3-2.5-4.1-2.2h-.8c-2.3.3-3.3,0-3.2-1.8v-5.3c0,0,1.9,0,1.9,0,.2,1.7,1.4,1.6,3.3,1.5ZM374.8,56.3c4.2-.4,5.7,1.2,6,4.2.3,2.9-.5,7-1.3,12.1l-4,1.1c1.5-4.4,2.5-7.6,2.3-9.5-.2-1.8-1.3-2.5-4.1-2.2h-.8c-2.3.3-3.3,0-3.2-1.8v-5.3c0,0,1.9,0,1.9,0,.2,1.7,1.4,1.6,3.3,1.5Z"/>
    <path class="st0" d="M400.6,54.7c6.5-.3,8.9,1.9,9.2,7.1.3,5.7-.3,10.9-1.7,13.4-.9,1.6-1.9,2.2-8.2,6.5-1.2.8-1.5,1.1-2,1.7l-1.5-.2.8-4.5c.1-.5.3-1.1.9-1.5,5.3-3.4,7-4.7,8.1-5.8.9-1.7,1.1-3.8,1-6-.2-4.4-2.6-5.5-7.7-5.3l-9.7.4c-2.3.1-3.3-.2-3.1-2l.3-5.2h1.8c0,1.4.9,1.8,3,1.7l8.8-.4ZM391.9,68l1.2,24.6-4.2.9c.1-8.3.2-16.4,0-24.4l2.3-1.2.6.2Z"/>
    <path class="st0" d="M431.2,42l.7-5.2,1.8.2c0,1.3.8,1.8,2.9,1.9h2.2c0,0-.9,5.3-.9,5.3-1.7,0-1.9.9-2.1,2.4-.2,1.8-.5,4.4-.5,6,0,1.3,0,1.8,1.8,1.8l9.2.3c4.6.1,6.8,2.3,6.7,6.7-.2,5.1-1.7,12.8-4,15-1.6,1.5-4.5,2.6-8.4,4.9-1.2.7-1.6,1.2-2,1.8l-1.5-.4,1.2-4.7c.1-.5.4-1.1,1-1.4,4.8-2.4,6.8-3.2,8.8-4.7.9-1.2,1.8-3.8,1.9-7.1.1-3.5-2.1-4.5-4.9-4.6l-10-.3c-2.3,0-3-.6-2.8-2.4l1.5-13.1c-1.8,0-2.7-.5-2.5-2.2Z"/>
    <path class="st0" d="M465.6,84.4c-3.6-9.4-4.1-14.7-4-16,.1-1.2,1.6-4.8,2.8-7.6l-2-.2c-2.3-.2-3.2-.7-2.9-2.4l1-5.1,1.8.3c-.1,1.3.7,1.8,2.8,2l3.7.3-1.2,5.2c-1.6,1-2.5,3.7-2.7,6.5-.2,2.3,1.2,6.9,2.7,10.6l6.7-16.3c-1.9-.2-2.7-.7-2.3-2.5l1-5,1.8.3c-.1,1.3.7,1.8,2.8,2l3.8.3-1.2,5.1c-3.4,0-3.8.7-10.3,16.9,4-.3,9.9-1.3,11.8-2.1,4.1-2,7.4-9.5,7.6-11.5.1-1.6-.3-2.2-2-2.4-2.3-.2-3.2-.7-2.9-2.4l1-5.1,1.8.3c-.1,1.3.7,1.8,2.8,2h.5c2.3.2,3.1.6,3,2.5-.6,6.6-7.9,20.6-12.1,21.9-4.2,1.4-10.7,2.2-15.8,2.5Z"/>
    <path class="st0" d="M533.6,64.3c6.6,1.2,7.4,4,6.4,9.2-1.1,6.1-2,12.7-2.6,20h-4.2c0,0,3.6-16.5,3.6-16.5,1.2-5.2-.7-6.7-5-7.4l-8.1-1.5c-3,4.6-3.3,6.2-3.5,7.1-.1.8-.5,2.6,1.4,10.4l-1.6,4.8-6-1.1c-1.3-.2-1.5-.3-2.1.1l-1.6-.6,1.7-4c.5-1.1.8-1.1,4.3-.4l1.2.2c-1.1-6.4-1.1-8.4-1-9,.1-.6.5-1.8,4.8-8l-1.6-.3c-2.3-.4-3.1-1-2.6-2.7l1.5-5,1.8.5c-.2,1.3.5,1.9,2.6,2.3l10.6,2Z"/>
    <path class="st0" d="M552.5,68.3c4.6,1.1,5.2,3.2,4,8.2-1.6,6.9-2.6,12.6-3.8,20.7l-4.2-.3,4.5-16.9c1.3-5.2,0-5.9-2.9-6.6-2.8-.7-3.6-1.2-3-2.9l1.8-5,1.8.5c-.3,1.3.4,1.9,1.8,2.2Z"/>
    <path class="st0" d="M576.3,74.4c6.5,1.8,8,4.6,6.2,10.9-.9,3.1-2.8,11.1-4.2,18.9l-4.2-.5,4.7-15c2-6.2-.7-8-5.2-9.3l-7.8-2.2c-2.3-.6-3-1.2-2.3-2.9l2-4.9,1.7.6c-.4,1.3.3,1.9,2.3,2.5l6.7,1.9Z"/>
    <path class="st0" d="M590.7,109c-1-10-.2-15.3.3-16.5.4-1.1,2.8-4.2,4.7-6.6l-1.9-.7c-2.2-.8-2.9-1.5-2.1-3.1l2.3-4.7,1.7.7c-.5,1.2.2,1.9,2.1,2.7l3.5,1.3-2.5,4.7c-1.8.6-3.4,2.9-4.3,5.6-.8,2.1-.7,7-.1,10.9l10.7-14c-1.8-.7-2.4-1.4-1.6-3.1l2.3-4.5,1.7.7c-.5,1.2.2,1.9,2.1,2.7l3.6,1.3-2.5,4.6c-3.3-.9-3.9-.3-14.3,13.7,4,.7,9.9,1.3,11.9,1,4.4-.9,9.6-7.2,10.3-9.2.6-1.5.3-2.2-1.3-2.8-2.2-.8-2.9-1.5-2.1-3.1l2.3-4.7,1.7.7c-.5,1.2.2,1.9,2.1,2.7l.5.2c2.1.8,2.9,1.3,2.3,3.1-2.3,6.2-13,17.8-17.3,18.1-4.4.3-10.9-.6-15.9-1.7Z"/>
    <path class="st0" d="M633.8,92.9c-.6,1.2,0,1.9,1.9,2.8l5.4,2.5c7.4,3.4,6.6,9.6,3.7,15.8-2.3,5-5.1,7.8-9.9,12.3l-13.6-6.3c-1.2-.6-1.4-.6-2.1-.4l-1.4-1,2.6-3.4c.7-1,1-.8,4.2.6l11.3,5.2c2-1.7,3.9-4.3,5.2-7,2.1-4.6,2.1-8.9-3.8-11.6l-6.2-2.8c-2.1-1-2.8-1.7-1.9-3.2l2.7-4.5,1.6.9Z"/>
    <path class="st0" d="M654.8,119.3l-7.8,13-4.1-1.4c3.1-4.1,6-8.2,8.8-12.3l2.6.2.5.5ZM660,105.4c-.7,1.1-.2,1.9,1.7,3l12.9,7.3c2,1.1,2.8,1.6,1.5,3.4l-3.1,4.4-9.2,18.4-3.9-1.4,9.9-16.5c1.8-3,1.6-3.8-1.1-5.3l-11.7-6.6c-2-1.2-2.6-1.9-1.6-3.4l3.1-4.3,1.5,1Z"/>
    <path class="st0" d="M696.5,136.7c-1.8-1.5-2.3-2.3-1.1-3.6l3.7-3.7,1.4,1.2c-.8,1-.5,1.9,1.2,3.2l13.9,11.1-3.9,3.7c-2.4-1.9-3.5-1.6-4.5-.3-1.8,2.2-6.7,9.2-11.7,16.5l-3.7-2,14.9-17.9-10.2-8.1Z"/>
    <path class="st0" d="M734.8,161.2c-.9.9-.7,1.8.8,3.3l.3.3c1.6,1.6,2.1,2.4.9,3.5-5.4,5.3-18.8,11.9-21.7,11.9-1.3,0-6.9-4.8-10.5-8-2.6-2.3-2.9-2.4-3.6-2.2l-.9-1.4,3.3-2c.9-.6,1.5-.7,2.2-.1,1.7,1.5,3.1,2.7,4.4,3.7,2.1-5.4,3.7-8.2,4.4-8.9.9-.8,4.2-2.4,7.3-3.3l-1.4-1.4c-1.6-1.7-2-2.6-.6-3.7l4.1-3.2,1.2,1.4c-.9.9-.7,1.8.8,3.3l3,3-4.3,3.2c-2.1-1.1-5.4.8-7,2.3-1.6,1.6-3.1,6.3-4.2,10.2,2.6,2.1,3.5,2.6,4.1,3,4.1-.2,10.7-3.9,12.9-6.1,1.2-1.1,1.1-2-.1-3.3-1.6-1.7-2-2.6-.6-3.7l4.1-3.2,1.2,1.4Z"/>
    <path class="st0" d="M744.5,175.3c2.9,3.8,2,5.8-2.1,8.9-5.6,4.3-10,8.2-16,13.6l-3.1-2.8,14.2-10.3c4.3-3.2,3.8-4.6,2-7-1.7-2.3-2-3.2-.5-4.1l4.5-2.7,1,1.5c-1,.8-.9,1.7,0,2.9Z"/>
  </g>
  <g>
    <path class="st0" d="M642,229.2c-11.2-6.2-26.3-9.4-44.8-9.4s-7.7.3-9.2,1c-1.4.6-2.1,1.9-2.1,4v72.4c0,2.1.7,3.4,2.1,4,1.6.7,4.9,1.1,10,1.1,16.1,0,29.5-2.2,39.8-6.6,15.8-6.6,23.8-18.1,23.8-34.1s-6.6-25.2-19.6-32.4Z"/>
    <path class="st0" d="M613,360.9c-1.7-.7-3.7-1.1-5.8-1.1s-4.1.4-5.8,1.1c-1.7.7-2.9,1.7-3.8,3-.9,1.3-1.3,2.6-1.3,4.2s.4,3,1.3,4.2c.9,1.3,2.2,2.3,3.8,3,1.7.7,3.6,1.1,5.8,1.1,3.3,0,5.9-.8,8-2.4,2-1.5,3-3.5,3-5.9s-.4-3-1.3-4.2c-.9-1.3-2.2-2.3-3.9-3Z"/>
    <path class="st0" d="M425.2,97.2c-165.9,0-300.5,77.6-300.5,173.4s134.5,173.4,300.5,173.4,300.5-77.6,300.5-173.4-134.5-173.4-300.5-173.4ZM290,382.8h-8.8v-17.8l-8.6,8.3h-1.8l-8.6-8.3v17.8h-8.8v-29.3h7.5l10.8,10.3,10.8-10.3h7.5v29.3ZM318.1,308.9h-64.8v-3.7h.6c5.7-.2,9.6-.5,11.5-.9,2.6-.6,2.6-1.9,2.6-2.3s-.2-1.3-1.8-3.2c-1.3-1.6-3.3-3.4-6.1-5.5l-39.7-29.4-5.8,3.7v25.4c0,5,1.1,8.2,3.2,9.5,2.2,1.4,7.3,2.3,15,2.7h.6v3.7h-59.9v-3.7h.6c8.3-.5,13.5-1.5,15.4-3,1.9-1.5,2.8-5.2,2.8-11v-61.8c0-4.9-1-8.1-3.1-9.5-2.2-1.4-7.2-2.4-15.1-2.7h-.6v-3.9h60.4v3.9h-.6c-8,.3-13.1,1.2-15.4,2.7-2.2,1.4-3.3,4.6-3.3,9.5v28.1c12.3-7.2,22.5-13.4,30.4-18.5,18.7-12.2,21.5-16.3,21.5-17.7s-1.1-2.6-3.2-3.1c-2.4-.6-5.9-.9-10.4-.9h-.6v-3.9h55.7v3.9h-.6c-6.6.5-11.8,1.4-15.5,2.6-3.8,1.3-9.1,4.1-15.8,8.5l-39.8,25.3,48.7,36.1c8.9,6.5,15.1,10.7,18.3,12.3,3.2,1.6,7.9,2.6,14.1,3.1h.6v3.7ZM355.2,382.8h-24.7v-29.3h5.3l6-8.6h12.3l-11.8,8.6h12.6v6.3h-15.5v4.9h14.9v6.3h-14.9v5.5h15.9v6.3ZM420.7,382.8l-10-9.7-10,9.7h-11.5l15.7-15.1-14.7-14.2h11.5l9,8.7,8.9-8.7h11.4l-14.5,14.2,15.8,15.2h-11.6ZM426.2,308.9h-3.5l-51.3-76.3v54.7c0,7.5,1.6,12.5,4.7,14.7,2.1,1.5,6.8,2.5,14.2,3h.6v3.9h-50v-3.9h.6c8.4-.6,13.9-1.9,16.2-3.9,2.3-1.9,3.4-6.6,3.4-13.9v-57.8c0-4.9-1.1-8.1-3.3-9.5-2.3-1.5-7.6-2.4-15.8-2.6h-.6v-3.9h41.9l47.4,70.4,46.2-70.4h42.3v3.9h-.6c-7.6.4-12.5,1.3-14.6,2.8-2,1.4-3.1,4.6-3.1,9.4v63.3c0,4.9,1,8.1,3.1,9.4,2.1,1.4,7,2.3,14.6,2.8h.6v3.9h-59.4v-3.9h.6c8.2-.5,13.4-1.5,15.3-3,1.9-1.5,2.9-5.1,2.9-10.9v-61.8l-52.2,79.6ZM476.8,382.8h-8.8v-29.3h8.8v29.3ZM549.8,380.2l-.7.3c-2.3.9-4.4,1.6-6.3,2-1.9.4-4.2.6-6.7.6-3.7,0-7.1-.6-10.1-1.8-3-1.2-5.4-3-7.2-5.3-1.8-2.3-2.7-4.9-2.7-7.7s.9-5.7,2.7-8c1.8-2.3,4.3-4.1,7.4-5.4,3.1-1.2,6.5-1.8,10.3-1.8s4,.2,5.9.5c1.9.4,4,1,6.2,1.8l.7.3v7.4l-1.6-.7c-2-.9-3.9-1.6-5.7-2-1.7-.4-3.5-.6-5.3-.6s-4.4.4-6.2,1.1c-1.8.7-3.1,1.7-4.1,3-.9,1.3-1.4,2.6-1.4,4.2s.5,3,1.4,4.2c1,1.3,2.3,2.3,4.1,3,1.8.7,3.9,1.1,6.2,1.1s3.5-.2,5.1-.6c1.6-.4,3.8-1.2,6.3-2.3l1.5-.7v7.3ZM624.6,375.8c-1.8,2.3-4.2,4.1-7.2,5.4-3,1.2-6.4,1.9-10.1,1.9s-7.1-.6-10.1-1.9c-3.1-1.3-5.5-3.1-7.2-5.4-1.8-2.3-2.7-4.9-2.7-7.7s.9-5.3,2.6-7.7c1.7-2.3,4.1-4.2,7.2-5.5,3-1.3,6.4-1.9,10.2-1.9s7,.6,10,1.8c3,1.2,5.4,3,7.2,5.4,1.8,2.4,2.8,5,2.8,7.9s-.9,5.4-2.7,7.7ZM679.2,282.1c-4.3,6.5-10.8,12-19.4,16.4-5.4,2.8-11.1,4.9-17,6.4-10.6,2.7-23.8,4-39.3,4h-58.3v-3.8h.6c7.4-.6,12.3-1.5,14.5-2.8,2.1-1.2,3.1-4.4,3.1-9.4v-63.3c0-4.9-1-8.1-3.1-9.5-2.1-1.4-7-2.3-14.6-2.7h-.6v-3.9h56.6c18.8,0,35,2.2,48.1,6.4,23.7,7.7,35.7,21.7,35.7,41.6s-2.2,14.1-6.4,20.6Z"/>
  </g>
  <path class="st0" d="M425.2,523.8c-104.8,0-203.3-26.1-277.6-73.4-75-47.8-116.3-111.7-116.3-179.8s41.3-131.9,116.3-179.8C221.8,43.6,320.4,17.5,425.2,17.5s203.3,26.1,277.6,73.4c75,47.8,116.3,111.7,116.3,179.8s-41.3,131.9-116.3,179.8c-74.2,47.3-172.8,73.4-277.6,73.4ZM425.2,28.8c-211,0-382.6,108.5-382.6,241.8s171.6,241.8,382.6,241.8,382.6-108.5,382.6-241.8S636.2,28.8,425.2,28.8Z"/>
  <g>
    <g>
      <polygon class="st0" points="344.7 459.3 329.7 472.9 329.5 472.8 332.2 457.2 325.6 456.1 319.9 490 326.5 491.1 329.3 474.4 341.8 493.6 350.2 495.1 336.9 474.4 352.2 460.6 344.7 459.3"/>
      <path class="st0" d="M351.5,495.9l-10.1-1.7-11.8-18.1-2.6,15.7-7.8-1.3,5.9-35.1,7.8,1.3-2.5,14.7,14.1-12.7,9,1.5-15.8,14.3,13.8,21.4ZM342.2,493.1l6.7,1.1-12.8-19.9,14.7-13.3-5.9-1-15,13.5h-.5c0,0,12.8,19.5,12.8,19.5ZM320.7,489.4l5.3.9,2.9-17h0l2.6-15.6-5.3-.9-5.5,32.6Z"/>
    </g>
    <g>
      <path class="st0" d="M386.1,465.9c-2.7-1.7-5.8-2.7-9.4-3.1-3.7-.3-7,.1-10,1.4-3,1.3-5.4,3.2-7.3,5.8-1.9,2.6-2.9,5.5-3.2,8.6-.3,3.2.2,6.3,1.6,9.1,1.4,2.8,3.4,5.1,6.2,6.9,2.8,1.8,5.9,2.9,9.4,3.2,3.6.3,6.9-.1,9.9-1.4,3-1.2,5.4-3.2,7.3-5.7,1.9-2.6,3-5.5,3.3-8.7.3-3.3-.3-6.4-1.7-9.3-1.4-2.9-3.5-5.2-6.2-6.9ZM387.2,481.4c-.3,3.5-1.7,6.2-4.2,8.2-2.5,2-5.4,2.8-9,2.5-2.3-.2-4.3-.9-6.1-2.1-1.7-1.2-3-2.7-3.9-4.6-.9-1.9-1.2-4-1-6.3.2-2.3.9-4.3,2.1-6,1.2-1.7,2.7-3,4.7-3.8,1.9-.8,4.1-1.1,6.4-.9,2.3.2,4.4.9,6.1,2.1s3.1,2.7,3.9,4.6c.9,1.9,1.2,4,1,6.3Z"/>
      <path class="st0" d="M375.7,498.6c-.7,0-1.5,0-2.3-.1-3.6-.3-6.9-1.4-9.7-3.3-2.8-1.9-5-4.3-6.4-7.2-1.4-2.9-2-6.1-1.7-9.4.3-3.2,1.4-6.2,3.3-8.9,1.9-2.7,4.5-4.7,7.5-6,3.1-1.3,6.5-1.8,10.3-1.4,3.6.3,6.9,1.4,9.6,3.2h0c2.8,1.8,4.9,4.2,6.4,7.2,1.5,3,2.1,6.2,1.8,9.6-.3,3.3-1.4,6.3-3.4,9-1.9,2.7-4.5,4.7-7.6,6-2.4,1-5.1,1.5-7.9,1.5ZM374.5,463.3c-2.7,0-5.2.5-7.5,1.4-2.9,1.2-5.2,3.1-7,5.6-1.8,2.5-2.8,5.3-3.1,8.3-.3,3.1.2,6.1,1.5,8.8,1.3,2.7,3.3,5,6,6.7,2.7,1.7,5.7,2.8,9.2,3.1,3.5.3,6.7-.1,9.6-1.3,2.9-1.2,5.3-3.1,7.1-5.5,1.8-2.5,2.9-5.3,3.2-8.4.3-3.1-.3-6.2-1.6-8.9-1.4-2.8-3.4-5-6-6.7h0c-2.6-1.7-5.7-2.7-9.1-3-.7,0-1.5-.1-2.2-.1ZM375.5,492.9c-.5,0-1,0-1.5,0-2.4-.2-4.6-1-6.4-2.2-1.8-1.2-3.2-2.9-4.1-4.9-.9-2-1.3-4.2-1-6.6.2-2.4.9-4.5,2.2-6.3,1.2-1.8,2.9-3.2,4.9-4,2-.9,4.3-1.2,6.7-1,2.4.2,4.6.9,6.4,2.2,1.9,1.2,3.2,2.9,4.1,4.9.9,2,1.2,4.2,1,6.6h0c-.3,3.6-1.8,6.5-4.4,8.6-2.2,1.8-4.9,2.7-7.9,2.7ZM374.8,469.1c-1.7,0-3.3.3-4.8.9-1.8.8-3.3,2-4.4,3.6-1.1,1.6-1.8,3.5-1.9,5.7-.2,2.1.1,4.1.9,5.9.8,1.8,2,3.2,3.7,4.3,1.6,1.1,3.6,1.8,5.8,2,3.3.3,6.2-.5,8.5-2.4,2.3-1.9,3.6-4.5,3.9-7.8.2-2.1-.1-4.2-.9-6-.8-1.8-2-3.3-3.7-4.3-1.7-1.1-3.6-1.8-5.8-2-.4,0-.9,0-1.3,0Z"/>
    </g>
    <g>
      <path class="st0" d="M418,480.1c-3.3-1.6-5.1-2.5-5.6-2.9-1.7-1.1-2.6-2.3-2.6-3.6,0-1.1.5-1.9,1.5-2.6,1-.6,2.3-.9,3.9-.9,2.8,0,5.9,1.2,9.4,3.4v-5.9c-2.9-1.7-6.2-2.6-9.5-2.7-3.5,0-6.4.7-8.5,2.4-2.2,1.7-3.3,3.9-3.4,6.8,0,2.2.6,4.1,1.9,5.7,1.3,1.7,3.3,3.1,6,4.4,2.3,1.1,4.1,2.1,5.5,2.9,1.7,1,2.6,2.3,2.5,3.9,0,1.2-.5,2.1-1.6,2.8-1,.7-2.3,1-4,1-3.2,0-6.7-1.7-10.3-4.8v6.5c1.8,1.2,3.6,2.1,5.1,2.6,1.6.5,3.5.8,5.6.8,3.4,0,6.1-.8,8.3-2.6,2.2-1.8,3.3-4.1,3.3-7.1,0-2.3-.5-4.2-1.8-5.9-1.2-1.6-3.2-3.2-6-4.5Z"/>
      <path class="st0" d="M414.5,500.7c-.1,0-.2,0-.4,0-2.2,0-4.2-.3-5.8-.9-1.6-.5-3.4-1.4-5.4-2.7l-.3-.2.2-8.2,1,.9c3.5,3,6.8,4.6,9.9,4.6,1.5,0,2.7-.3,3.6-.9.8-.6,1.3-1.3,1.3-2.3,0-1.4-.7-2.5-2.2-3.4-1.4-.8-3.2-1.8-5.5-2.9-2.7-1.3-4.8-2.9-6.2-4.6-1.4-1.8-2.1-3.8-2-6.1,0-3.1,1.3-5.5,3.6-7.3,2.3-1.8,5.3-2.6,8.9-2.5,3.4,0,6.8,1,9.9,2.8l.3.2v7.4c-.1,0-1.1-.6-1.1-.6-3.4-2.1-6.4-3.3-9.1-3.3-1.5,0-2.7.2-3.6.8-.8.5-1.2,1.2-1.2,2.1,0,1.1.7,2.1,2.3,3.1.3.2,1.5.9,5.5,2.8h0c2.9,1.4,5,3,6.2,4.7,1.3,1.8,1.9,3.9,1.9,6.3,0,3.1-1.3,5.7-3.5,7.5-2.2,1.8-5,2.7-8.3,2.7ZM403.9,496.3c1.8,1.1,3.4,1.9,4.8,2.3,1.5.5,3.3.8,5.5.8,3.2,0,5.9-.7,7.9-2.4,2-1.7,3-3.8,3.1-6.6,0-2.1-.5-4-1.6-5.5-1.1-1.6-3.1-3-5.8-4.3-4.4-2.1-5.4-2.7-5.7-2.9-1.9-1.2-2.9-2.6-2.8-4.2,0-1.3.6-2.3,1.7-3.1,1.1-.7,2.5-1,4.3-1,2.6,0,5.6,1,8.8,2.9v-4.4c-2.8-1.6-5.8-2.4-8.9-2.4-3.4,0-6.1.7-8.2,2.3-2,1.6-3.1,3.6-3.1,6.3,0,2,.6,3.8,1.8,5.3,1.2,1.6,3.2,3,5.7,4.2,2.3,1.2,4.1,2.1,5.6,3,1.9,1.2,2.9,2.7,2.8,4.5,0,1.4-.6,2.5-1.8,3.3-1.1.8-2.6,1.1-4.3,1.1-3.1,0-6.3-1.4-9.7-4.1v4.9Z"/>
    </g>
    <g>
      <polygon class="st0" points="459.8 464.4 460.5 478.8 442.7 479.7 442 465.3 435.4 465.6 437 499.9 443.6 499.5 442.9 485.1 460.7 484.2 461.4 498.7 468.1 498.4 466.4 464.1 459.8 464.4"/>
      <path class="st0" d="M436.4,500.5l-1.7-35.5,7.9-.4.7,14.4,16.5-.8-.7-14.4,7.9-.4,1.7,35.5-7.9.4-.7-14.5-16.5.8.7,14.5-7.9.4ZM436,466.2l1.6,33,5.4-.3-.7-14.5,19-.9.7,14.5,5.4-.3-1.6-33-5.4.3.7,14.4-19,.9-.7-14.4-5.4.3Z"/>
    </g>
    <g>
      <polygon class="st0" points="487.4 491.1 486.2 481.5 501 479.7 500.4 474.6 485.6 476.3 484.5 467.4 500 465.5 499.4 460.4 477.3 463 481.4 497.1 503.8 494.4 503.2 489.3 487.4 491.1"/>
      <path class="st0" d="M480.9,497.8l-4.2-35.3,23.3-2.8.8,6.4-15.4,1.8.9,7.7,14.8-1.8.8,6.4-14.8,1.8,1,8.4,15.8-1.9.8,6.4-23.6,2.8ZM478,463.6l3.9,32.8,21.1-2.5-.5-3.9-15.8,1.9-1.3-10.9,14.8-1.8-.5-3.9-14.8,1.8-1.2-10.2,15.4-1.8-.5-3.9-20.8,2.5Z"/>
    </g>
    <g>
      <path class="st0" d="M536.9,479.8c-1.7-2.1-3-3.6-4.1-4.5-1-.8-2.1-1.4-3.3-1.8,1.8-1.2,3-2.6,3.8-4.2.7-1.6.9-3.4.5-5.3-.5-2.8-2-4.9-4.3-6.3-2.3-1.4-5.1-1.8-8.2-1.2l-12.1,2.3,6.4,33.7,6.5-1.2-2.7-14.2,2.4-.4c1-.2,2-.1,2.9.3.9.4,1.9,1.1,3,2.2,1.1,1.1,2.9,3.2,5.5,6.5,1.2,1.5,2.1,2.5,2.7,3.2l7.3-1.4c-1.3-1.4-3.4-3.9-6.2-7.6ZM526.3,469.2c-.8,1-2.1,1.7-3.8,2l-4.2.8-1.8-9.4,4.1-.8c1.8-.3,3.2-.2,4.3.4,1.1.6,1.8,1.6,2.1,3.2.3,1.5,0,2.7-.8,3.8Z"/>
      <path class="st0" d="M515.1,493.3l-6.6-35,12.8-2.4c3.3-.6,6.2-.2,8.7,1.2,2.5,1.5,4,3.7,4.6,6.7.4,2,.2,3.9-.6,5.7-.6,1.4-1.6,2.7-3,3.8.8.4,1.7.9,2.4,1.5,1.1.9,2.4,2.4,4.2,4.6h0c2.8,3.7,4.9,6.2,6.1,7.5l.8.8-8.7,1.7-.2-.2c-.7-.7-1.6-1.7-2.7-3.2-2.5-3.2-4.3-5.4-5.4-6.4-1-1-2-1.7-2.8-2-.8-.3-1.6-.4-2.6-.2l-1.7.3,2.7,14.2-7.8,1.5ZM509.9,459.4l6.2,32.5,5.3-1-2.7-14.2,3-.6c1.2-.2,2.3-.1,3.3.3,1,.4,2.1,1.2,3.2,2.3,1.1,1.1,3,3.3,5.5,6.5,1,1.3,1.8,2.2,2.4,2.9l5.8-1.1c-1.3-1.5-3.1-3.7-5.5-6.8-1.6-2.1-3-3.5-4-4.4-1-.8-2-1.4-3.1-1.7l-1.3-.4,1.1-.7c1.7-1.1,2.9-2.4,3.5-3.9.7-1.5.8-3.1.5-4.9-.5-2.7-1.8-4.6-4-5.9-2.2-1.3-4.8-1.7-7.8-1.1l-11.5,2.2ZM517.9,472.8l-2-10.6,4.7-.9c1.9-.4,3.5-.2,4.8.4,1.3.7,2.1,1.9,2.4,3.6.3,1.7,0,3.1-.9,4.3h0c-.9,1.2-2.3,1.9-4.2,2.3l-4.8.9ZM517.4,463.2l1.5,8.2,3.5-.7c1.5-.3,2.7-.9,3.4-1.8h0c.7-.9.9-2,.7-3.3-.3-1.4-.8-2.3-1.8-2.8-1-.5-2.3-.6-3.9-.3l-3.4.7Z"/>
    </g>
  </g>
</svg>