<?xml version="1.0" encoding="UTF-8"?><svg id="Capa_1" xmlns="http://www.w3.org/2000/svg" viewBox="0 0 188.13 31.57"><defs><style>.cls-1{fill:#e45f2f;}</style></defs><path d="M164.51,26.07s-.13.14-.24.1c-.03-.17.05-.29.11-.43.88-2.03,2.4-4.39,3.46-6.42,2.45-4.68,4.77-9.47,7.33-14.09.08-.14.43-.82.47-.85.29-.28,1.04-.14,1.17.3l11.33,21.49-6-.12-1.2-2.53h-9.66s-1.04,2.55-1.04,2.55h-5.72ZM172.97,19.81h6.11l.1-.2-2.99-6.35c-.15-.11-.88,1.46-.96,1.63-.65,1.32-1.23,2.68-1.86,4.01-.14.29-.45.54-.41.91Z"/><path d="M123.36,10.41c-.21.12-1-.5-1.25-.62-4.9-2.46-10.41.16-9.98,5.97s7.07,7.37,11.2,4.16l2.84,3.82c.2.43-1.02,1.09-1.36,1.29-2.81,1.61-6.69,1.96-9.81,1.17-11.68-2.95-10.91-20.65,1.3-22.21,2.45-.31,5.8-.09,8.03,1.04.33.17,1.76,1.03,1.79,1.34.05.5-2.48,3.34-2.76,4.04Z"/><path d="M77.49,26.07l.23-.22c3.61-6.72,6.94-13.62,10.6-20.31.41-.75.81-2.03,1.72-.96,3.23,6.07,6.38,12.19,9.61,18.27.19.35,1.86,3.19,1.71,3.32h-5.95c-.16-.4-1.09-2.67-1.34-2.72l-9.36.09c-.15.05-.17.14-.24.25-.36.57-.65,1.62-.9,2.28h-6.07ZM86.3,19.81h6.26l-3.08-6.46c-.21,0-.5.67-.61.86-.96,1.8-1.7,3.75-2.57,5.6Z"/><path d="M66.05,4.35l.1,17.22h11.01c.14.09.13.19.15.34.16,1.38-.27,2.81,0,4.16l-16.43-.05V4.5s.13-.15.1-.24c.13-.06.29.1.34.1h4.74Z"/><path d="M139.47,26.07l-.11-21.72c.14-.19,1.33-.13,1.57.1,1.88,1.64,3.61,3.44,5.43,5.14,1.43,1.34,3.01,2.56,4.26,4.07.28.04,1.23-1.07,1.51-1.33,2.83-2.59,5.65-5.17,8.46-7.78.47-.36,1.05-.3,1.62-.29v21.47s.15.21.1.34h-5.18v-11.54c-.42.38-.86.74-1.27,1.12-1.34,1.27-2.82,3.11-4.21,4.21-.67.53-.89.54-1.57,0l-5.48-5.33v11.54h-5.14Z"/><rect x="129.24" y="4.25" width="5.18" height="21.82"/><path class="cls-1" d="M23.27,16.98c.39-.05.41-.37.6-.63,1.16-1.66,2.23-3.35,3.31-5.06.46-.73.94-1.34,1.26-2.17.02-.05-.03-.08.08-.07l1.97,3.07c1.61,2.38,3.12,4.78,4.64,7.25.33.53.99,1.34,1.21,1.87.24.56-.3.73-.55,1.16-.26.46-.13.65.14,1.06.41.62.84,1.24,1.24,1.89.08.13.48.77.56.81.06.03.38.12.46.13,1.79.2,3.87-.2,5.68-.05l.17-.08c-.16-.06-.15-.19-.23-.31-1.17-1.66-2.25-3.41-3.32-5.1-.19-.31-.83-1.1-.85-1.4,0-.09-.01-.18.03-.27l1.45-2.37,1.97-2.87,2.97,4.76c1.55,2.22,2.93,4.53,4.41,6.8.21.33.48.85.89.87l5.8-.05c.06-.05-.52-.93-.6-1.05-3.83-6.03-7.83-12.16-11.69-18.11-.43-.66-.8-1.44-1.32-2.04-.09-.1-.41-.43-.51-.43-.28-.02-.39.31-.59.45-1.74,2.5-3.23,5.23-5,7.73-.04.06-.19.3-.26.25-.13-.34-.33-.66-.52-.97-2.01-3.25-4.11-6.29-6.21-9.46-.36-.54-.66-1.15-1.03-1.69-.07-.1-.18-.28-.25-.36-.07-.09-.51-.53-.59-.54-.2-.02-.7.57-.83.74-.92,1.26-1.79,2.74-2.65,4.05-2.6,3.95-5.06,8.23-7.88,11.99-.04.05-.1.06-.07.15.13.14,2.71.1,3.11.1l2.98-.06h0Z"/><path class="cls-1" d="M14.51,5.31c.15.19.23.45.36.64.63.95,1.37,1.95,1.95,2.95.11.19.27.42.16.63-1.21,1.79-2.37,3.64-3.53,5.44-1.95,3.04-3.9,6.06-5.87,9.1-.4.62-.82,1.44-1.26,2.02-.05.06-.11.12-.17.17l-5.85.03-.31-.11c-.02-.24.22-.36.31-.49,1.15-1.65,2.12-3.29,3.19-4.98,2.61-4.1,5.26-8.11,7.89-12.17.56-.87,1.07-1.82,1.68-2.68.08-.11.69-.83.76-.86.27-.1.53.11.68.3h0Z"/><path class="cls-1" d="M22.2,17.93c.8,1.16,1.58,2.44,2.34,3.64.06.1.23.15.21.38-.24.47-.49.96-.77,1.41-.02.04-.08.05-.11.1-.58.93-1.19,1.84-1.79,2.75-.18.16-.53.02-.76.02-.16,0-.3.05-.44.05-1.66.03-3.32-.03-4.97,0-.01-.12,0-.2.06-.31.19-.37.56-.81.8-1.16,1.22-1.86,2.38-3.78,3.58-5.67.37-.57.78-1.14,1.12-1.67.07-.11.04-.29.23-.27.05.04.04.17.09.25.08.13.33.34.42.48h0Z"/><path d="M62.98,31.51l-.28-.72h-1.14l-.27.72h-.38l1.02-2.57h.41l1.02,2.57h-.38ZM62.13,29.32l-.44,1.15h.88l-.45-1.15Z"/><path d="M65.29,31.51h-1.57v-2.57h.35v2.23h1.21v.33Z"/><path d="M66.69,31.57c-.35,0-.65-.12-.9-.36s-.37-.57-.37-.98c0-.28.06-.52.19-.72.13-.21.28-.36.47-.46.19-.1.4-.15.61-.15.29,0,.53.07.73.22.2.15.33.34.4.6l-.33.12c-.05-.19-.14-.34-.28-.45-.14-.11-.31-.16-.52-.16-.25,0-.47.09-.64.27-.18.18-.27.43-.27.74s.09.57.27.75c.18.18.39.27.64.27.21,0,.39-.06.52-.17.14-.11.24-.26.29-.45l.31.12c-.07.25-.2.45-.4.6-.2.15-.44.23-.73.23Z"/><path d="M68.1,30.23c0-.21.04-.4.11-.57.07-.17.17-.31.29-.42.12-.11.26-.19.41-.25.15-.06.31-.09.47-.09s.32.03.47.09c.15.06.29.15.41.25.12.11.22.25.29.42.07.17.11.36.11.57,0,.28-.06.52-.19.72-.13.21-.29.36-.48.46-.19.1-.4.15-.62.15s-.43-.05-.62-.15c-.19-.1-.35-.26-.48-.46-.13-.21-.19-.45-.19-.72ZM68.73,29.48c-.18.18-.27.43-.27.74s.09.57.27.75.4.27.66.27.47-.09.66-.27.27-.43.27-.75-.09-.57-.27-.74c-.18-.18-.4-.27-.66-.27s-.47.09-.66.27Z"/><path d="M73.18,31.51h-.35v-1.14h-1.31v1.14h-.35v-2.57h.35v1.1h1.31v-1.1h.35v2.57Z"/><path d="M73.67,30.23c0-.21.04-.4.11-.57.07-.17.17-.31.29-.42.12-.11.26-.19.41-.25.15-.06.31-.09.47-.09s.32.03.47.09c.15.06.29.15.41.25.12.11.22.25.29.42.07.17.11.36.11.57,0,.28-.06.52-.19.72-.13.21-.29.36-.48.46-.19.1-.4.15-.62.15s-.43-.05-.62-.15c-.19-.1-.35-.26-.48-.46-.13-.21-.19-.45-.19-.72ZM74.31,29.48c-.18.18-.27.43-.27.74s.09.57.27.75.4.27.66.27.47-.09.66-.27.27-.43.27-.75-.09-.57-.27-.74c-.18-.18-.4-.27-.66-.27s-.47.09-.66.27Z"/><path d="M78.31,31.51h-1.57v-2.57h.35v2.23h1.21v.33Z"/><path d="M80.28,31.51h-1.56v-2.57h1.56v.33h-1.21v.79h1.09v.33h-1.09v.79h1.21v.33Z"/><path d="M82.46,29.53l-.32.11c-.02-.11-.07-.21-.16-.3s-.22-.14-.38-.14c-.14,0-.26.04-.35.12-.09.08-.14.18-.14.3,0,.09.03.17.08.24s.14.11.24.13l.38.08c.21.05.38.13.49.26.12.13.17.28.17.46,0,.21-.08.39-.25.54s-.38.22-.64.22c-.29,0-.51-.08-.67-.23-.16-.15-.26-.33-.28-.54l.34-.11c.01.15.07.29.18.39.11.11.25.16.43.16.17,0,.3-.04.39-.12s.14-.17.14-.29c0-.1-.03-.18-.1-.25-.06-.07-.16-.12-.29-.15l-.37-.08c-.19-.04-.34-.12-.46-.24-.11-.12-.17-.27-.17-.46,0-.2.08-.38.25-.53.17-.15.37-.23.6-.23.26,0,.46.06.6.19s.23.28.26.45Z"/><path d="M84.49,30.42l-.91-1.47h.43l.67,1.14.67-1.14h.41l-.91,1.47v1.1h-.35v-1.1Z"/><path d="M87.91,31.51h-.89v-2.57h.9c.35,0,.63.11.87.34.23.23.35.54.35.95s-.12.71-.35.94c-.24.23-.53.34-.87.34ZM87.38,31.2h.52c.25,0,.46-.08.62-.25.17-.17.25-.4.25-.71s-.08-.55-.24-.72c-.16-.17-.37-.25-.62-.25h-.53v1.94Z"/><path d="M91.19,31.51h-1.56v-2.57h1.56v.33h-1.21v.79h1.09v.33h-1.09v.79h1.21v.33Z"/><path d="M93.06,31.51l-.59-1.05h-.38v1.05h-.36v-2.57h.97c.24,0,.43.07.57.22.14.15.22.33.22.54,0,.19-.06.34-.17.48-.11.13-.26.22-.46.25l.61,1.08h-.41ZM92.09,30.15h.54c.15,0,.26-.04.35-.12.09-.08.13-.18.13-.32s-.04-.24-.13-.32c-.09-.08-.21-.12-.35-.12h-.54v.88Z"/><path d="M94.33,31.51h-.36v-2.57h.36v2.57Z"/><path d="M95.85,31.06l.78-2.11h.37l-.99,2.57h-.35l-.97-2.57h.38l.77,2.11Z"/><path d="M98.94,31.51l-.28-.72h-1.14l-.27.72h-.38l1.02-2.57h.41l1.02,2.57h-.38ZM98.09,29.32l-.44,1.15h.88l-.45-1.15Z"/><path d="M100.58,31.51h-.89v-2.57h.9c.34,0,.63.11.87.34.23.23.35.54.35.95s-.12.71-.35.94c-.24.23-.53.34-.87.34ZM100.04,31.2h.52c.25,0,.46-.08.62-.25.17-.17.25-.4.25-.71s-.08-.55-.24-.72c-.16-.17-.37-.25-.62-.25h-.53v1.94Z"/><path d="M102.13,30.23c0-.21.04-.4.11-.57.07-.17.17-.31.29-.42.12-.11.26-.19.41-.25s.31-.09.47-.09.32.03.47.09.29.15.41.25c.12.11.22.25.29.42.07.17.11.36.11.57,0,.28-.06.52-.19.72-.13.21-.29.36-.48.46-.19.1-.4.15-.62.15s-.43-.05-.62-.15c-.19-.1-.35-.26-.48-.46-.13-.21-.19-.45-.19-.72ZM102.76,29.48c-.18.18-.27.43-.27.74s.09.57.27.75c.18.18.4.27.66.27s.47-.09.65-.27c.18-.18.27-.43.27-.75s-.09-.57-.27-.74c-.18-.18-.4-.27-.65-.27s-.47.09-.66.27Z"/><path d="M106.82,29.53l-.32.11c-.02-.11-.07-.21-.16-.3s-.22-.14-.38-.14c-.14,0-.26.04-.35.12-.09.08-.14.18-.14.3,0,.09.03.17.08.24s.14.11.24.13l.38.08c.21.05.38.13.49.26.12.13.17.28.17.46,0,.21-.08.39-.25.54s-.38.22-.64.22c-.29,0-.51-.08-.67-.23-.16-.15-.26-.33-.28-.54l.34-.11c.01.15.08.29.18.39s.25.16.43.16c.17,0,.3-.04.39-.12s.14-.17.14-.29c0-.1-.03-.18-.1-.25-.07-.07-.16-.12-.29-.15l-.37-.08c-.19-.04-.34-.12-.46-.24-.11-.12-.17-.27-.17-.46,0-.2.08-.38.25-.53.17-.15.37-.23.6-.23.26,0,.46.06.6.19.14.13.23.28.26.45Z"/><path d="M109.87,29.53l-.32.11c-.02-.11-.07-.21-.16-.3s-.22-.14-.38-.14c-.14,0-.26.04-.35.12-.09.08-.14.18-.14.3,0,.09.03.17.08.24s.14.11.24.13l.38.08c.21.05.38.13.49.26.12.13.17.28.17.46,0,.21-.08.39-.25.54s-.38.22-.64.22c-.29,0-.51-.08-.67-.23-.16-.15-.26-.33-.28-.54l.34-.11c.01.15.08.29.18.39s.25.16.43.16c.17,0,.3-.04.39-.12s.14-.17.14-.29c0-.1-.03-.18-.1-.25-.07-.07-.16-.12-.29-.15l-.37-.08c-.19-.04-.34-.12-.46-.24-.11-.12-.17-.27-.17-.46,0-.2.08-.38.25-.53.17-.15.37-.23.6-.23.26,0,.46.06.6.19.14.13.23.28.26.45Z"/><path d="M110.38,31.46s-.07-.11-.07-.18.02-.13.07-.18c.05-.05.11-.07.18-.07s.13.03.18.07c.05.05.07.11.07.18s-.03.13-.07.18c-.05.05-.11.07-.18.07s-.13-.02-.18-.07Z"/><path d="M113.16,31.51l-.28-.72h-1.14l-.27.72h-.38l1.02-2.57h.41l1.02,2.57h-.38ZM112.31,29.32l-.44,1.15h.88l-.45-1.15Z"/><path d="M113.91,31.46s-.07-.11-.07-.18.02-.13.07-.18c.05-.05.11-.07.18-.07s.13.03.18.07c.05.05.07.11.07.18s-.03.13-.07.18c-.05.05-.11.07-.18.07s-.13-.02-.18-.07Z"/><path d="M116.72,31.51h-.89v-2.57h.9c.34,0,.63.11.87.34.23.23.35.54.35.95s-.12.71-.35.94c-.24.23-.53.34-.87.34ZM116.18,31.2h.52c.25,0,.46-.08.62-.25.17-.17.25-.4.25-.71s-.08-.55-.24-.72c-.16-.17-.37-.25-.62-.25h-.53v1.94Z"/><path d="M119.99,31.51h-1.56v-2.57h1.56v.33h-1.21v.79h1.09v.33h-1.09v.79h1.21v.33Z"/><path d="M122.55,31.57c-.35,0-.65-.12-.9-.36-.25-.24-.37-.57-.37-.98,0-.28.06-.52.19-.72.12-.21.28-.36.47-.46s.39-.15.61-.15c.29,0,.53.07.73.22.2.15.33.34.4.6l-.33.12c-.05-.19-.14-.34-.28-.45-.14-.11-.31-.16-.52-.16-.25,0-.47.09-.64.27-.18.18-.27.43-.27.74s.09.57.27.75.39.27.64.27c.21,0,.38-.06.52-.17.14-.11.24-.26.29-.45l.32.12c-.07.25-.2.45-.4.6-.2.15-.44.23-.73.23Z"/><path d="M124.12,31.46s-.07-.11-.07-.18.02-.13.07-.18c.05-.05.11-.07.18-.07s.13.03.18.07c.05.05.07.11.07.18s-.03.13-.07.18c-.05.05-.11.07-.18.07s-.13-.02-.18-.07Z"/><path d="M125.63,31.06l.78-2.11h.37l-.99,2.57h-.35l-.97-2.57h.38l.77,2.11Z"/><path d="M126.78,31.46s-.07-.11-.07-.18.02-.13.07-.18c.05-.05.11-.07.18-.07s.13.03.18.07c.05.05.07.11.07.18s-.03.13-.07.18c-.05.05-.11.07-.18.07s-.13-.02-.18-.07Z"/></svg>