<?xml version="1.0" encoding="UTF-8"?>
<svg id="Capa_1" xmlns="http://www.w3.org/2000/svg" version="1.1" viewBox="0 0 512 512">
  <!-- Generator: Adobe Illustrator 29.8.2, SVG Export Plug-In . SVG Version: 2.1.1 Build 3)  -->
  <defs>
    <style>
      .st0 {
        fill: #154d7e;
      }

      .st1 {
        fill: #fdfdfc;
      }

      .st2 {
        fill: #caa448;
      }
    </style>
  </defs>
  <path class="st2" d="M507.6,256c0,138.9-112.6,251.6-251.6,251.6S4.4,394.9,4.4,256,117.1,4.4,256,4.4s251.6,112.6,251.6,251.6ZM481.4,255.7c0-124.5-100.9-225.4-225.4-225.4S30.6,131.2,30.6,255.7s100.9,225.4,225.4,225.4,225.4-100.9,225.4-225.4Z"/>
  <path class="st0" d="M481.4,255.7c0,124.5-100.9,225.4-225.4,225.4S30.6,380.2,30.6,255.7,131.5,30.3,256,30.3s225.4,100.9,225.4,225.4ZM261.8,54.9c-3.7,5.6-3.8,15.6-1.2,21.8,8.5,19.6,40.5,18.7,45.8-2.8s-31-39.6-44.6-19ZM208.1,92.7c11.6-2.1,28.9-1.6,36.8-11.8,8.7-11.3,4.3-28.1-9-33.2-8.4-3.2-14.7-.9-23,.3-3.6.5-7.3.9-11,1l6.1,43.7ZM169,112c.8-.9-1.8-10.1.3-11.6l16.9-8c2.1-.1,6.9,5.8,8,6s8.2-3.2,9.2-3.8.9-.4.8-1.1l-35.7-29.6c-3-2-8.2,2.7-11.3,3.8,0,2.6,0,5.3,0,7.9.1,4.3.8,9.2,1,13.6.3,8.1-.3,17.4.4,25.4,0,.6.2,1.7.7,2.1,2.8-2,6.3-3.7,9.6-4.7ZM345.8,88.2c.1-.2.9-.4,1.2-.9,3.5-5.9,6.4-12.2,10.4-17.8-2-.7-6.7-4.4-8.3-4.8s-1-.2-1.5.1c-6.3,13.1-24.5,30.7-9.9,44.6,7.1,6.8,18.8,9.5,27,3,4.2-3.3,10.9-14.9,13.8-20s3.9-7,3.9-7.4-.2-.6-.5-.9-6.2-3.9-6.7-4.1c-2.3-1-1.6.2-2.6,1.8-3.5,5.6-10.9,20.1-15.6,23.4-3.6,2.5-6.8,1.7-10.3-.5-7.2-4.5-4.2-10.7-.8-16.5ZM136.2,137.8c.6-.8-6.7-8.2-7.5-9.7,0-.4,4.7-5.5,5.3-5.8,3.1-1.8,12,3.1,16,2.4s7.9-6.2,7.8-6.8c-.2-1.1-13.9-3.1-15.8-4.4,1-3.9,1.4-7.9,0-11.8-1.7-4.5-6.9-8.8-11.8-9.3-6-.7-10.9,1.6-15.4,5.1s-9.9,9.5-15.3,13.4l28.7,32.9c.5.4.9.2,1.4,0,1.8-.8,4.2-5.4,6.6-5.9ZM412.8,256.2c0-86.6-70.2-156.8-156.8-156.8s-156.8,70.2-156.8,156.8,70.2,156.8,156.8,156.8,156.8-70.2,156.8-156.8ZM418,121.8c-2.3-11-17.3-26.5-29.1-18.5-5.4,3.7-6.2,9-4.2,14.9,1.2,3.3,12.8,18.3,4.3,19.1s-14.3-12.3-13.3-17.8c-1.7,1-6.8,1.6-8,2.6s1.3,7,2,8.4c2.6,5.5,7.7,10.9,12.9,13.8s7.8,3.5,12.8,1.7,7.5-7,7-12.2c-.6-6-9.3-15.7-8.4-20.7.2-1.3,1.6-2.1,2.8-2.4,6.3-1.4,11.7,9.6,13.7,14.4l7.5-3.3ZM93.4,130.3c-5.4.6-10.8,2.9-14.4,7-9.5,11.1-10.8,29,2.9,37.5,14,8.7,31.2-.7,36.3-15.2.9-2.6,2.2-8.2,1.9-10.8l-14.1-9.8c-.4-.2-.9-.4-1.3-.2s-4.9,7.6-4.8,8.1,9,5,9.7,6.4c1.5,3-2.2,9-4.5,11-13.1,11.8-32.1-5.4-20.2-20.2,2.4-3,5.4-5,9.3-5.5l-.9-8.4ZM431.6,135.1l-37.5,21.2c-1,1.6,4.1,7.7,4.2,9.8,2.1-.7,9.3-6.1,11-5.6s4.2,7.2,5.1,8.6c5.4,8.1,15.7,13,24.3,6.2,14.6-11.5-.9-28.6-7.1-40.1ZM105.6,359.2c-.7-.4-2.2.6-2.9,1-4,2.3-8.1,6.6-12,9.1,1.9,4.2,5.2,7.9,7.7,11.9.5-.9,2.6-1.5,2.5-2.5-.1-1.4-5.1-5.5-5.2-7.6s2.1-1.6,2.6-2.6l5.6,6.6c4.5-1.9-3-7-2.6-8.6s2.8-2.5,3.8-1.9,3.3,6,4.2,6.6,3,0,3.3-1-6.6-8.9-7.1-10.9ZM420.1,370.2c0-5.3-4.3-9.7-9.7-9.7s-9.7,4.3-9.7,9.7,4.3,9.7,9.7,9.7,9.7-4.3,9.7-9.7ZM118.8,383c.3.3,3-.5,3.3-1.2.4-1.4-3-6-4.2-7-5.1-3.8-10-.9-8.7,5.4s5.2,9.6.2,8.2c-3.6-1-3.9-7-4.2-7.3s-2.1,0-2.6.4c-2.2,1.7,1.6,6.9,3.1,8.3,4.3,3.9,12.1,2.8,9.6-4.5s-5.4-8.7-1-8.3c4.1.3,3.8,5.3,4.6,6ZM398.7,374.6c-13.6.9-13.1,21.7,1.6,19.7,4.3-.6,8.3-6,7.8-10.3-.8.1-4-.2-4.2,0-.4.4.7,3.6-2.7,5.6-6.4,3.8-11.9-6-6.5-9.8,2.3-1.6,4.3-.4,4-5.2ZM121.6,384c-.2,1.9,4.4,3.5,4.2,4.9-.1.8-8.7,8.5-9.6,10.2-.6,1.1,1.2,2.6,1.9,3.3,1.8-1.2,9.8-10.6,10.9-10.8s2.9,3.1,3.8,3.2,3-2.5,1.6-3.5c-2.7-1.1-7.4-7.6-9.4-8.5s-1.8,1-3.3,1.2ZM383,387.4c-.6,0-3,1.8-2.4,3.2,1.6,3.6,9.5,9.4,11.8,13.2.5.1,3.4-2.4,2.8-3.3-1.8-1.3-11.3-13.1-12.2-13.1ZM373.8,400.4c0,.7.3,1.3.7,1.9,2.7,3.4,5.6,6.7,8.4,9.9.9-1.1,2.5-1.6,1.9-3.3s-8.1-9.6-8.2-10.6,3.4-2.3,3.6-3.3-.5-2.6-.8-2.8c-1.4-1.1-3.5,1.9-4.5,2.6-1.9,1.4-7.2,4.7-8,6.6s.3,1.4.7,1.7c2.1,1.3,5.2-3.3,6.1-2.6ZM142.3,397.1h7c.2-1.1-.2-.8-.6-1.1-2-1.3-6.3-2.5-6.4,1.1ZM138.5,419.2l4.2-18.6c.4-2.9-1.7-3.7-4.1-2.7l-16.1,8.3c2.5,5.6,5.2.8,7.2,1.2s5,3.4,5.3,3.7c1.8,2-.4,3.6-.2,4.9s3.5,3.3,3.7,3.1ZM362.6,404.2c.6,4.2,10,11.8,4.7,15.2-5.4,3.5-8.9-6.9-11.5-10-2.7,1-4.4,1.5-2.5,4.4s5.4,7.4,6.6,8.4c5,4.3,13.4,0,13.1-6-.1-2.8-4.4-10.1-6.3-12-1.8-1.7-2-.4-4,0ZM155,420.6c.6-1.9-.8-3.6-.9-5s.7-10.9-3-10-8.6,12.6-9,14,1.3,3.5,2.1,3.1,4.1-6.2,5.2-7.5.5-1,1.3-.8c.3,3.7-.2,10.4.9,13.8s2.5.9,3,1.3l9.7-16.2c-.6-.2-3-1.9-3.3-1.7s-4.1,7.1-5,8.3,0,.9-1.1.6ZM345.2,409.4c-3.2-.2-3.9,3.5-4.2,6.1,2.9-.4,4.3-3.4,4.2-6.1ZM350.3,413.1c-.6-.6-11.2,5.4-12.6,6.3,2.9,5.4,6.6,10.3,8.4,16.2l11.4-5.7c1.4-.4.5-3.7,0-3.7-3,1.2-5.8,2.7-8.4,4.7-7.1-7.3,5.7-4,3.7-10.3-.6-.8-.9-.3-1.5,0-1.6.6-5,3.8-6.7,2.7s-1.8-2.7-1.4-3.5,7.2-3.1,7.4-3.4c.4-.7-.5-2.4-.4-3.2ZM167.2,415.9l-7.5,16.1c.4,1.2,10.9,5.6,12.8,5.4,3.2-.4,7.5-4.7,8.1-7.9,1.7-8.1-7.3-11.6-13.4-13.6ZM336.7,422.5c-5.5-2-12.8,1.9-13.6,7.8s5.9,12.8,13.2,10.4c1.4-.5,6.4-4.1,5.1-5.8-2.2-2.9-2.9-.1-4,.7-4.3,3.5-9.5,1.7-10.4-3.8s2.7-5.7,5.2-6.1,4.4,1.4,4.4-3.3ZM180.7,442.6c.5-.3,1.5-3.4,3.5-3.2s7.1,2.7,7.4,3c1.1,1.3-.1,3.6.7,4.9s1.9,1.2,2.6.3c1.2-1.7.1-10.2,0-12.7-.2-3.5,1.4-7.6-3.7-8.1-1.7-.2-5.6,5.6-6.9,7s-5.9,5.3-6.6,6.6,2.4,2.6,3,2.3ZM325,445.5c.3-.5-2.3-3.8-2.8-4.4-1.1-1.4-8.1-10.3-8.6-10.6-1.5-.9-3.3-.4-4.7.5l-2.1,20.2c6.3-.5,3.2-3.9,4.3-5.6s8-2.5,8.4-2.2c1.7,1.1.5,4.5,5.6,2.1ZM214.1,453c.6-.6-2.2-5.4-1.8-6.7s2.3-1.4,3-2.2c1.5-1.9,1.7-5.7.8-7.8-1.4-3.3-9.9-4.7-13.2-4.8,0,2.6-4.5,16.5-3.6,17.8s3.1,1.2,3.5.9c.6-1.4.6-3,1-4.5s-.3-.8.7-.6,3,1,3.3,1.4c1.9,2.2.7,7.3,6.4,6.6ZM300.1,433.8c-.5-.5-2.9.2-3.5.9-1.1,1.5-3.4,11.2-4,11.7s-.6,0-1-.3c-3-3.1-5.6-10-10.8-9.1l2.4,18.8c.6-.1,4.1-.8,4.2-.9.3-.4-2.3-8.4-1.9-9.9,1.1-1.2,5.4,7.7,7.7,7s3-8.4,4.3-9.8c.9,1.4,1.3,9.3,2.2,9.8s3.1.2,3.5-.4c-.6-2.2-2.4-17.2-3.1-17.8ZM232.5,440.4c1.3-.8,6.4,1,8.2.9s1.7-2.7.4-3.2-11.7-1.5-12.3-1l-2.8,17.2c-.3,1.5,3.8,1.2,4.1,1,.4-.3.7-5.5,1-6.5,1.3-.4,8,1.4,8.4.9s.2-2.3.5-2.8l-8.5-1.4c.5-1,.4-4.7,1-5.1ZM273.1,438.5c-3-.5-7.4.4-10.6,0l1.2,19.3c.7-.5,3.8-.3,4-.5s-.2-4.7,0-5.6c4-1.6,5.2,3.7,7.1,4.5s3,.2,4.2.7c.8-.8-3.8-5.2-3.8-6.4s1.3-1.2,1.8-1.9c2.6-3.5.3-9.3-3.9-10ZM253,439c-.3-.2-4.2-.2-4.5,0-1,.6-7.1,16.4-8.1,18.7,1-.9,3.5-.1,4.2-.5s.5-3.2,1.8-3.6,5.5-.2,6.5,0c3,.4,2.4,3.7,3.1,4.2s3.7,0,4.6.5c-1.2-2.3-6.7-18.6-7.6-19.2Z"/>
  <g>
    <path class="st1" d="M208.1,92.7l-6.1-43.7c3.6-.1,7.4-.5,11-1,8.2-1.2,14.5-3.5,23-.3,13.3,5.1,17.7,21.9,9,33.2-7.9,10.2-25.2,9.6-36.8,11.8ZM234.6,57.7c-5.8-5.8-14.4-2.2-21.4-2l3.8,27.2c5.4-1.2,13.6-.9,17.8-5,5.3-5.1,5-15.1-.1-20.2Z"/>
    <path class="st1" d="M261.8,54.9c13.6-20.6,51.3-8.4,44.6,19s-37.3,22.4-45.8,2.8c-2.6-6.1-2.5-16.1,1.2-21.8ZM296.7,67.5c0-7.7-6.3-14-14-14s-14,6.3-14,14,6.3,14,14,14,14-6.3,14-14Z"/>
    <path class="st1" d="M136.2,137.8c-2.4.5-4.8,5.1-6.6,5.9s-.9.4-1.4,0l-28.7-32.9c5.4-3.9,10.1-9.3,15.3-13.4s9.4-5.8,15.4-5.1c4.9.6,10.1,4.8,11.8,9.3,1.4,3.9,1,7.8,0,11.8,1.9,1.4,15.5,3.3,15.8,4.4s-7.1,6.7-7.8,6.8c-4,.7-12.9-4.2-16-2.4s-5.4,5.4-5.3,5.8c.7,1.4,8.1,8.8,7.5,9.7ZM122.1,121.4c.4.3,3.2-2.1,3.8-2.6,4.3-3.8,9.6-8.5,5.6-14.5s-14.4,2.4-18.2,6.5c0,.9,8.4,8.7,8.9,10.6Z"/>
    <path class="st1" d="M93.4,130.3l.9,8.4c-3.9.4-6.9,2.5-9.3,5.5-12,14.7,7,32,20.2,20.2s6-8,4.5-11-9.6-5.8-9.7-6.4,4.4-7.9,4.8-8.1,1,0,1.3.2l14.1,9.8c.3,2.7-1,8.2-1.9,10.8-5.1,14.5-22.3,23.9-36.3,15.2-13.8-8.5-12.5-26.4-2.9-37.5s9-6.4,14.4-7Z"/>
    <path class="st0" d="M234.6,57.7c5.1,5.1,5.4,15.1.1,20.2-4.2,4.1-12.4,3.8-17.8,5l-3.8-27.2c7-.1,15.7-3.7,21.4,2Z"/>
    <circle class="st0" cx="282.7" cy="67.5" r="14"/>
    <path class="st0" d="M122.1,121.4c-.5-1.8-8.9-9.7-8.9-10.6,3.8-4.1,13.1-14.1,18.2-6.5s-1.2,10.7-5.6,14.5-3.4,2.9-3.8,2.6Z"/>
    <g>
      <path class="st1" d="M169,112c-3.3,1-6.7,2.8-9.6,4.7-.5-.4-.6-1.5-.7-2.1-.8-7.9-.2-17.3-.4-25.4s-.9-9.3-1-13.6,0-5.3,0-7.9c3.1-1.1,8.3-5.8,11.3-3.8l35.7,29.6c.1.7-.3.8-.8,1.1-1,.6-8.6,3.9-9.2,3.8-1.1-.2-5.9-6.1-8-6l-16.9,8c-2.1,1.5.4,10.8-.3,11.6ZM170.7,77.9c-.5-.4-3.7-3.4-4-3l1.4,16.9c.5.6,10.9-4.9,12.2-5.9-3-2.9-6.4-5.4-9.6-8Z"/>
      <path class="st0" d="M170.7,77.9c3.2,2.6,6.5,5.2,9.6,8-1.3,1-11.7,6.4-12.2,5.9l-1.4-16.9c.4-.4,3.5,2.6,4,3Z"/>
    </g>
    <g>
      <path class="st1" d="M345.8,88.2c-3.4,5.8-6.4,12,.8,16.5s6.7,2.9,10.3.5c4.7-3.2,12.1-17.8,15.6-23.4s.3-2.8,2.6-1.8,6.4,3.8,6.7,4.1.5.4.5.9-3.3,6.5-3.9,7.4c-2.9,5.1-9.5,16.7-13.8,20-8.2,6.5-19.9,3.8-27-3-14.6-13.9,3.5-31.5,9.9-44.6.5-.4,1-.3,1.5-.1,1.6.4,6.3,4.1,8.3,4.8-4,5.6-6.9,11.9-10.4,17.8-.3.5-1,.7-1.2.9Z"/>
      <path class="st1" d="M431.6,135.1c6.1,11.6,21.7,28.7,7.1,40.1-8.6,6.8-19,1.9-24.3-6.2-.9-1.3-4.2-8.3-5.1-8.6-1.6-.5-8.9,4.9-11,5.6,0-2.1-5.2-8.2-4.2-9.8l37.5-21.2ZM428.7,148.3c-.6,0-10.3,5.8-11.3,6.6s-.8.4-.8,1.1,4.9,8.6,5.9,9.6c6.2,6.7,14.8-.1,12.3-7.6s-4.4-9.2-5.1-9.5-.6-.2-1.1-.1Z"/>
      <path class="st1" d="M418,121.8l-7.5,3.3c-1.9-4.7-7.3-15.8-13.7-14.4s-2.6,1.1-2.8,2.4c-.9,4.9,7.9,14.6,8.4,20.7.5,5.2-1.9,10.4-7,12.2s-8.3.8-12.8-1.7-10.4-8.4-12.9-13.8-3.2-7.4-2-8.4,6.3-1.6,8-2.6c-.9,5.6,7.8,18.4,13.3,17.8,8.5-.8-3.1-15.8-4.3-19.1-2.1-5.9-1.2-11.2,4.2-14.9,11.8-8,26.7,7.5,29.1,18.5Z"/>
      <path class="st0" d="M428.7,148.3c.4,0,.7,0,1.1.1.7.4,4.7,8.3,5.1,9.5,2.4,7.5-6.1,14.3-12.3,7.6s-5.9-8.8-5.9-9.6.4-.8.8-1.1c1.1-.8,10.7-6.5,11.3-6.6Z"/>
    </g>
  </g>
  <g>
    <path class="st2" d="M412.8,256.2c0,86.6-70.2,156.8-156.8,156.8s-156.8-70.2-156.8-156.8,70.2-156.8,156.8-156.8,156.8,70.2,156.8,156.8ZM400.5,256.2c0-79.8-64.7-144.5-144.5-144.5s-144.5,64.7-144.5,144.5,64.7,144.5,144.5,144.5,144.5-64.7,144.5-144.5Z"/>
    <path class="st1" d="M400.5,256.2c0,79.8-64.7,144.5-144.5,144.5s-144.5-64.7-144.5-144.5,64.7-144.5,144.5-144.5,144.5,64.7,144.5,144.5ZM356,170.7c-36.2-2.2-72.2-14.8-99.8-38.5-19.2,15.8-42,27.2-66.3,33.3-5.9,1.5-12.5,2.8-17.8,3.3s-2.4.4-3.7.5-12,1.3-12.3,1.8c-3.4,43-4.5,90.7,12.9,130.9,13.8,31.8,43,57.7,73,74,2.8,1.5,9.9,5.6,12.5,6.3.9.3,1.5.3,2.5.1,2.9-.6,13.4-6.9,16.6-8.7,25.6-14.7,49.1-34.4,63.6-60.4,19.2-34.3,21.1-75.6,20.6-114.2l-1.9-28.4Z"/>
    <g>
      <path class="st0" d="M356,170.7l1.9,28.4c.5,38.7-1.4,79.9-20.6,114.2-14.6,26-38.1,45.7-63.6,60.4-3.3,1.9-13.7,8.2-16.6,8.7-1,.2-1.5.1-2.5-.1-2.6-.7-9.8-4.8-12.5-6.3-30-16.3-59.3-42.2-73-74-17.4-40.2-16.3-88-12.9-130.9.4-.5,10.7-1.6,12.3-1.8s2.8-.4,3.7-.5c5.3-.5,11.9-1.8,17.8-3.3,24.2-6.1,47-17.5,66.3-33.3,27.6,23.7,63.6,36.3,99.8,38.5ZM217.2,343.8c11.8,9.8,25,18.2,38.9,24.7,35.6-17.5,67.4-44.9,79.8-83.7,9.3-29.2,11.1-66.9,8.3-97.4,0-.9-.6-5-.9-5.2-31.5-3.5-62.6-14.9-87.6-34.4-5.4,4.7-11.5,8.7-17.8,12.2-17.2,9.7-36.6,16.5-55.9,20.2-4.5.9-9.2,1.4-13.7,2.3-2.9,27.1-1.9,54.6,2.8,81.4,5.8,33.2,20.4,58.5,46.2,79.9Z"/>
      <path class="st1" d="M217.2,343.8c-25.8-21.4-40.4-46.7-46.2-79.9-4.7-26.8-5.7-54.3-2.8-81.4,4.5-.9,9.1-1.4,13.7-2.3,19.4-3.7,38.7-10.4,55.9-20.2,6.2-3.5,12.3-7.5,17.8-12.2,25,19.4,56.1,30.9,87.6,34.4.3.2.8,4.3.9,5.2,2.7,30.5,1,68.1-8.3,97.4-12.4,38.8-44.2,66.3-79.8,83.7-13.9-6.5-27.1-15-38.9-24.7ZM340.5,185.3c-24.7-2.8-50.3-11.3-71.6-24-2-1.2-12.2-8.5-13.1-8.5s-7.4,5-9,6c-22.6,14-48.8,23.5-75.3,26.4-2.7,24.6-1.6,48.6,2.4,72.9,6.7,41.3,24.3,69.5,58.9,92.8l22.8,13.4,1.7-.2c24.4-13.5,48.3-30.7,63.3-54.6,19.2-30.6,21.1-69.7,21.4-105l-1.4-19.5Z"/>
      <path class="st0" d="M340.5,185.3l1.4,19.5c-.3,35.2-2.3,74.4-21.4,105-15,24-38.9,41.1-63.3,54.6l-1.7.2-22.8-13.4c-34.5-23.4-52.2-51.5-58.9-92.8-4-24.3-5.1-48.4-2.4-72.9,26.5-2.9,52.7-12.5,75.3-26.4,1.6-1,7.8-5.9,9-6s11.1,7.3,13.1,8.5c21.3,12.7,47,21.1,71.6,24ZM245.1,308.4c.3.2,1.3-1.1,1.6-1.4,8.5-10.5,16-23.3,24.5-34.2,13.7-17.4,29.2-33.1,46.7-46.8l-15.5-18.3c-1.4-.8-2.9.8-4,1.7-17.7,14.1-33.5,33.6-47,51.7-2.6,3.5-4.9,7.3-7.5,10.8-.6.2-.8-.4-1.2-.7-5-4.7-9.6-11.8-14.6-16.9s-6.6-5.7-9.6-8.7l-15.3,17.1c0,1,4.2,3.8,5.2,4.7,12.1,11.3,24,24.4,34.3,37.1s1.9,2.6,2.4,4Z"/>
      <path class="st1" d="M245.1,308.4c-.5-1.4-1.5-2.9-2.4-4-10.3-12.8-22.1-25.8-34.3-37.1s-5.2-3.7-5.2-4.7l15.3-17.1c3,2.9,6.7,5.7,9.6,8.7,5,5.1,9.5,12.2,14.6,16.9s.6.9,1.2.7c2.7-3.5,4.9-7.3,7.5-10.8,13.4-18.1,29.2-37.6,47-51.7s2.5-2.4,4-1.7l15.5,18.3c-17.4,13.7-33,29.4-46.7,46.8-8.5,10.9-16,23.7-24.5,34.2-.3.3-1.3,1.6-1.6,1.4Z"/>
    </g>
  </g>
  <g>
    <path class="st1" d="M300.1,433.8c.7.6,2.5,15.7,3.1,17.8-.4.6-3,.7-3.5.4-.8-.5-1.3-8.4-2.2-9.8-1.3,1.4-3,9.4-4.3,9.8-2.3.7-6.6-8.2-7.7-7-.4,1.5,2.2,9.5,1.9,9.9s-3.6.8-4.2.9l-2.4-18.8c5.2-.9,7.8,6,10.8,9.1s.8.5,1,.3c.6-.6,2.9-10.3,4-11.7s2.9-1.4,3.5-.9Z"/>
    <path class="st1" d="M155,420.6c1.1.3.8-.2,1.1-.6,1-1.2,4.6-8.1,5-8.3s2.7,1.4,3.3,1.7l-9.7,16.2c-.6-.4-2.9-.8-3-1.3-1.2-3.4-.6-10.1-.9-13.8-.9-.2-.9.3-1.3.8-1.1,1.3-4.2,7-5.2,7.5s-2.7-1.3-2.1-3.1,8.2-13.9,9-14c3.7-.9,2.8,8.3,3,10s1.6,3.1.9,5Z"/>
    <path class="st1" d="M167.2,415.9c6,2,15.1,5.5,13.4,13.6-.7,3.1-4.9,7.5-8.1,7.9-1.8.2-12.4-4.1-12.8-5.4l7.5-16.1ZM164.8,431.4c2.7,1,4.6,2.4,7.6,1.8s5.3-6.3,2.9-9.3-4.7-3.5-5.4-3.1-4.5,8.1-4.9,9.2-.4.9-.2,1.4Z"/>
    <path class="st1" d="M214.1,453c-5.7.7-4.4-4.3-6.4-6.6s-2.7-1.2-3.3-1.4c-1-.2-.5,0-.7.6-.4,1.4-.4,3-1,4.5-.4.3-3.2-.4-3.5-.9-.9-1.3,3.5-15.2,3.6-17.8,3.3,0,11.9,1.4,13.2,4.8.9,2.2.7,6-.8,7.8s-2.7,1.4-3,2.2c-.4,1.4,2.4,6.2,1.8,6.7ZM212.1,437.2c-.7-.7-5.4-2.1-6-1.5l-1.4,6.6c2.5.5,7.5,1.6,8-2.2s0-2.3-.6-2.9Z"/>
    <path class="st1" d="M420.1,370.2c0,5.3-4.3,9.7-9.7,9.7s-9.7-4.3-9.7-9.7,4.3-9.7,9.7-9.7,9.7,4.3,9.7,9.7ZM408.5,364.8c-6.2,1.4-4.3,13.1,3.9,11,7-1.8,3.3-12.5-3.9-11Z"/>
    <path class="st1" d="M273.1,438.5c4.3.8,6.5,6.5,3.9,10-.6.7-1.8,1-1.8,1.9s4.5,5.6,3.8,6.4c-1.3-.5-3.1-.2-4.2-.7-1.8-.8-3-6-7.1-4.5-.2.9.2,5.4,0,5.6s-3.2,0-4,.5l-1.2-19.3c3.2.4,7.6-.5,10.6,0ZM267.3,448.3c9.6,1,9-8.1-.5-6.5,0,2.2-.1,4.4.5,6.5Z"/>
    <path class="st1" d="M105.6,359.2c.5,2,7.4,9.8,7.1,10.9s-2.4,1.6-3.3,1-3.4-6-4.2-6.6-3.7,1.6-3.8,1.9c-.4,1.7,7.1,6.7,2.6,8.6l-5.6-6.6c-.5,1-2.7,1.7-2.6,2.6,0,2.1,5.1,6.2,5.2,7.6s-2.1,1.6-2.5,2.5c-2.5-4-5.8-7.7-7.7-11.9,3.9-2.6,8.1-6.9,12-9.1s2.2-1.4,2.9-1Z"/>
    <path class="st1" d="M253,439c.9.5,6.4,16.9,7.6,19.2-.9-.4-4.3-.3-4.6-.5-.7-.5-.1-3.8-3.1-4.2-1-.1-5.8-.1-6.5,0-1.3.4-1.4,3.4-1.8,3.6-.7.4-3.1-.4-4.2.5.9-2.4,7-18.1,8.1-18.7s4.2-.2,4.5,0ZM253.1,450.7c.2-.3-1.6-6.4-1.9-7.2s-.2-1.1-.9-1.2l-2.4,8,5.2.5Z"/>
    <path class="st1" d="M350.3,413.1c-.1.9.8,2.6.4,3.2s-7,2.8-7.4,3.4.7,3.1,1.4,3.5c1.7,1.1,5.1-2.1,6.7-2.7s1-.7,1.5,0c2,6.4-10.8,3-3.7,10.3,2.6-2,5.4-3.5,8.4-4.7.5,0,1.4,3.4,0,3.7l-11.4,5.7c-1.8-5.9-5.5-10.8-8.4-16.2,1.5-.9,12-6.9,12.6-6.3Z"/>
    <path class="st1" d="M138.5,419.2c-.2.1-3.5-2.4-3.7-3.1-.2-1.3,2-2.9.2-4.9s-5-3.6-5.3-3.7c-1.9-.4-4.7,4.4-7.2-1.2l16.1-8.3c2.4-1,4.5-.2,4.1,2.7l-4.2,18.6ZM139,401.8l-5.6,2.8c-.6,1,2.9,3.9,3.5,4.2s.6-.3.8-.6c.6-1.8.7-4.5,1.4-6.4Z"/>
    <path class="st1" d="M325,445.5c-5.1,2.4-4-1.1-5.6-2.1s-8.2,1.8-8.4,2.2c-1.1,1.6,2,5.1-4.3,5.6l2.1-20.2c1.4-.9,3.2-1.4,4.7-.5s7.6,9.2,8.6,10.6c.5.6,3.2,4,2.8,4.4ZM311.4,441.8c1.2,0,4.4-.4,4.6-1.7s-3.3-6.4-4.2-4.6-.7,6-.5,6.3Z"/>
    <path class="st1" d="M362.6,404.2c2-.5,2.2-1.7,4,0,2,1.9,6.2,9.3,6.3,12,.2,6-8.2,10.3-13.1,6-1.2-1-5.7-6.9-6.6-8.4-1.8-2.9-.1-3.5,2.5-4.4,2.6,3.1,6.1,13.6,11.5,10,5.3-3.4-4.1-11-4.7-15.2Z"/>
    <path class="st1" d="M180.7,442.6c-.5.3-3.9-.5-3-2.3s5.2-5.1,6.6-6.6,5.2-7.2,6.9-7c5,.5,3.4,4.6,3.7,8.1s1.2,11,0,12.7-2.1.5-2.6-.3c-.8-1.4.5-3.6-.7-4.9s-6.8-2.9-7.4-3c-2-.3-2.9,2.8-3.5,3.2ZM191.6,431.4c-.9-.2-.9.3-1.3.8-.6.7-3.5,4-3.4,4.6,1.2,1.1,3.1,1.7,4.7,2.1v-7.5Z"/>
    <path class="st1" d="M118.8,383c-.7-.6-.5-5.6-4.6-6-4.4-.4.4,6.7,1,8.3,2.5,7.2-5.3,8.4-9.6,4.5s-5.3-6.5-3.1-8.3,2.3-.7,2.6-.4.6,6.3,4.2,7.3c4.9,1.4,0-7-.2-8.2-1.3-6.3,3.6-9.2,8.7-5.4,1.2.9,4.6,5.6,4.2,7s-3,1.5-3.3,1.2Z"/>
    <path class="st1" d="M398.7,374.6c.3,4.8-1.7,3.5-4,5.2-5.3,3.8.1,13.6,6.5,9.8,3.3-2,2.2-5.1,2.7-5.6s3.4.1,4.2,0c.5,4.3-3.5,9.7-7.8,10.3-14.7,2-15.2-18.7-1.6-19.7Z"/>
    <path class="st1" d="M336.7,422.5c0,4.7-1.2,2.8-4.4,3.3s-5.7,3.5-5.2,6.1c.9,5.5,6.1,7.2,10.4,3.8s1.8-3.6,4-.7-3.7,5.3-5.1,5.8c-7.4,2.4-14.3-2.5-13.2-10.4s8.1-9.8,13.6-7.8Z"/>
    <path class="st1" d="M232.5,440.4c-.6.4-.5,4.1-1,5.1l8.5,1.4c-.3.5-.4,2.7-.5,2.8-.5.4-7.1-1.3-8.4-.9-.3,1-.6,6.2-1,6.5s-4.4.4-4.1-1l2.8-17.2c.6-.5,10.9.5,12.3,1s1.2,3.1-.4,3.2-6.8-1.7-8.2-.9Z"/>
    <path class="st1" d="M373.8,400.4c-.9-.7-4,3.9-6.1,2.6s-.9-1.2-.7-1.7c.8-1.8,6.1-5.1,8-6.6s3.1-3.7,4.5-2.6.9,2.4.8,2.8c-.2.9-3.9,2-3.6,3.3s7.5,8.4,8.2,10.6-1,2.2-1.9,3.3c-2.9-3.2-5.7-6.5-8.4-9.9s-.7-1.2-.7-1.9Z"/>
    <path class="st1" d="M121.6,384c1.5-.2,1.7-1.9,3.3-1.2s6.7,7.4,9.4,8.5c1.4.9-.5,3.7-1.6,3.5s-2.7-3.4-3.8-3.2-9.1,9.6-10.9,10.8c-.7-.7-2.5-2.1-1.9-3.3,1-1.7,9.5-9.4,9.6-10.2.2-1.4-4.4-3-4.2-4.9Z"/>
    <path class="st1" d="M383,387.4c.9,0,10.4,11.8,12.2,13.1.6.9-2.3,3.4-2.8,3.3-2.3-3.8-10.2-9.6-11.8-13.2s1.8-3.2,2.4-3.2Z"/>
    <path class="st1" d="M345.2,409.4c0,2.7-1.3,5.7-4.2,6.1.3-2.6,1-6.3,4.2-6.1Z"/>
    <path class="st1" d="M142.3,397.1c.1-3.6,4.4-2.4,6.4-1.1s.8,0,.6,1.1h-7Z"/>
    <path class="st0" d="M164.8,431.4c-.2-.5,0-.9.2-1.4.5-1.1,4.4-8.9,4.9-9.2s4.8,2.3,5.4,3.1c2.4,3,.9,8.5-2.9,9.3s-4.9-.8-7.6-1.8Z"/>
    <path class="st0" d="M212.1,437.2c.6.6.7,2.1.6,2.9-.5,3.8-5.5,2.6-8,2.2l1.4-6.6c.6-.6,5.3.8,6,1.5Z"/>
    <path class="st0" d="M408.5,364.8c7.2-1.6,10.9,9.1,3.9,11-8.2,2.2-10.1-9.6-3.9-11Z"/>
    <path class="st0" d="M267.3,448.3c-.7-2.1-.6-4.3-.5-6.5,9.5-1.6,10.2,7.6.5,6.5Z"/>
    <path class="st0" d="M253.1,450.7l-5.2-.5,2.4-8c.7,0,.7.7.9,1.2.3.9,2.2,7,1.9,7.2Z"/>
    <path class="st0" d="M139,401.8c-.6,1.9-.7,4.6-1.4,6.4s0,1-.8.6-4.1-3.2-3.5-4.2l5.6-2.8Z"/>
    <path class="st0" d="M311.4,441.8c-.2-.2.1-5.5.5-6.3.8-1.8,4.3,3.9,4.2,4.6-.2,1.3-3.5,1.7-4.6,1.7Z"/>
    <path class="st0" d="M191.6,431.4v7.5c-1.6-.5-3.5-1-4.7-2.1-.1-.6,2.8-3.9,3.4-4.6s.4-1,1.3-.8Z"/>
  </g>
</svg>