<svg xmlns="http://www.w3.org/2000/svg" version="1.1" xmlns:xlink="http://www.w3.org/1999/xlink" width="636.51" height="293.24"><svg id="SvgjsSvg1212" xmlns="http://www.w3.org/2000/svg" viewBox="0 0 636.51 293.24"><defs><style>.cls-1{fill:#e45f2f;}</style></defs><path class="cls-1" d="M259.04,189.02c4.3-.6,4.61-4.07,6.64-6.98,12.92-18.47,24.79-37.32,36.82-56.34,5.16-8.15,10.43-14.89,14.02-24.13.22-.57-.29-.93.87-.75l21.93,34.21c17.97,26.49,34.69,53.17,51.7,80.68,3.65,5.9,11,14.95,13.51,20.82,2.64,6.18-3.39,8.12-6.1,12.86-2.89,5.07-1.41,7.2,1.6,11.8,4.55,6.94,9.37,13.81,13.86,21,.89,1.43,5.37,8.6,6.23,9.03.68.34,4.24,1.31,5.13,1.41,19.88,2.18,43.06-2.18,63.28-.56l1.87-.84c-1.78-.71-1.65-2.09-2.57-3.41-13.03-18.49-25.07-37.97-36.98-56.74-2.16-3.4-9.27-12.3-9.5-15.59-.07-1-.15-2.02.31-2.96l16.15-26.35,21.97-31.96,33.05,53.05c17.31,24.77,32.61,50.44,49.06,75.69,2.36,3.62,5.3,9.49,9.95,9.66l64.6-.58c.66-.57-5.81-10.35-6.63-11.64-42.65-67.17-87.14-135.38-130.16-201.63-4.75-7.31-8.93-16.05-14.69-22.75-.99-1.15-4.52-4.77-5.72-4.84-3.11-.18-4.34,3.45-6.52,4.98-19.4,27.78-35.94,58.26-55.66,86.01-.46.65-2.17,3.35-2.94,2.77-1.47-3.82-3.62-7.37-5.78-10.85-22.4-36.14-45.72-70.08-69.09-105.27-4.02-6.05-7.34-12.83-11.44-18.81-.76-1.1-2.02-3.07-2.78-4.03-.82-1.03-5.72-5.89-6.58-5.98-2.26-.24-7.8,6.31-9.2,8.23-10.23,14.01-19.89,30.52-29.51,45.14-28.92,43.97-56.32,91.67-87.71,133.51-.41.54-1.06.68-.81,1.63,1.42,1.59,30.21,1.14,34.62,1.12l33.17-.62Z"></path><path class="cls-1" d="M161.6,59.06c1.7,2.1,2.57,4.97,4.03,7.15,7.05,10.55,15.3,21.7,21.69,32.8,1.2,2.09,3,4.66,1.78,7.01-13.47,19.88-26.42,40.5-39.26,60.57-21.68,33.87-43.4,67.43-65.32,101.28-4.5,6.95-9.14,16.03-14.02,22.49-.54.72-1.18,1.37-1.88,1.93l-65.15.32-3.45-1.21c-.22-2.72,2.42-3.98,3.43-5.43,12.75-18.33,23.57-36.68,35.53-55.46,29.05-45.62,58.59-90.33,87.88-135.51,6.27-9.67,11.93-20.24,18.7-29.79.9-1.27,7.71-9.27,8.45-9.53,3.03-1.07,5.86,1.22,7.61,3.38Z"></path><path class="cls-1" d="M247.17,199.61c8.89,12.91,17.62,27.11,26,40.48.68,1.09,2.52,1.62,2.38,4.19-2.72,5.27-5.46,10.72-8.58,15.75-.24.39-.9.54-1.25,1.08-6.49,10.33-13.25,20.49-19.97,30.67-2.04,1.81-5.86.22-8.47.22-1.8,0-3.29.57-4.88.6-18.43.32-36.91-.28-55.34-.02-.14-1.33.03-2.27.62-3.47,2.06-4.15,6.28-8.97,8.87-12.92,13.55-20.68,26.46-42.13,39.87-63.11,4.07-6.37,8.72-12.66,12.44-18.6.79-1.26.41-3.24,2.52-2.99.59.48.49,1.91,1.05,2.77.91,1.4,3.68,3.81,4.73,5.34Z"></path></svg><style>@media (prefers-color-scheme: light) { :root { filter: none; } }
@media (prefers-color-scheme: dark) { :root { filter: contrast(1) brightness(1); } }
</style></svg>